<svg style="width: 36px; height: 36px; display: block; position: relative; overflow: hidden; cursor: move; left: 2px; top: 2px;" xmlns="http://www.w3.org/2000/svg" viewBox="0 0 52.28 43.49"><g><g></g><g><g transform="translate(0.5,0.5)" style="visibility: visible;"><path d="M 32 2 C 33 2 33 3 33 3 C 33 3 33 4 33 4 L 3 32 C 3 32 2 33 3 33 C 3 33 3 33 4 33 L 32 33 C 33 33 33 33 33 33 C 33 33 33 32 33 32 L 3 4 C 3 4 2 3 3 3 C 3 3 3 2 4 2 L 32 2 Z" fill="#ffffff" stroke="#000000" stroke-miterlimit="10" pointer-events="all"></path></g></g><g></g><g></g></g></svg>