<svg style="width: 36px; height: 36px; display: block; position: relative; overflow: hidden; cursor: move; left: 2px; top: 2px;" xmlns="http://www.w3.org/2000/svg" viewBox="0 0 52.28 43.49"><g><g></g><g><g transform="translate(0.5,0.5)" style="visibility: visible;"><path d="M 3 28 L 3 8 C 3 5 9 3 18 3 C 26 3 33 5 33 8 L 33 28 C 33 31 26 33 18 33 C 9 33 3 31 3 28 Z" fill="#ffffff" stroke="#000000" stroke-miterlimit="10" pointer-events="all"></path><path d="M 3 8 C 3 10 9 13 18 13 C 26 13 33 10 33 8" fill="none" stroke="white" stroke-miterlimit="10" pointer-events="stroke" visibility="hidden" stroke-width="9"></path><path d="M 3 8 C 3 10 9 13 18 13 C 26 13 33 10 33 8" fill="none" stroke="#000000" stroke-miterlimit="10"></path></g></g><g></g><g></g></g></svg>