<svg style="width: 36px; height: 36px; display: block; position: relative; overflow: hidden; cursor: move; left: 2px; top: 2px;" xmlns="http://www.w3.org/2000/svg" viewBox="0 0 52.28 43.49"><g><g></g><g><g transform="translate(0.5,0.5)" style="visibility: visible;"><path d="M 5 9 L 31 9 C 32 9 33 13 33 18 C 33 23 32 27 31 27 L 5 27 C 4 27 2 23 2 18 C 2 13 4 9 5 9 Z" fill="#ffffff" stroke="#000000" stroke-miterlimit="10" pointer-events="all"></path><path d="M 31 9 C 29 9 28 13 28 18 C 28 23 29 27 31 27" fill="none" stroke="white" stroke-miterlimit="10" pointer-events="stroke" visibility="hidden" stroke-width="9"></path><path d="M 31 9 C 29 9 28 13 28 18 C 28 23 29 27 31 27" fill="none" stroke="#000000" stroke-miterlimit="10"></path></g></g><g></g><g></g></g></svg>