<svg style="width: 36px; height: 36px; display: block; position: relative; overflow: hidden; cursor: move; left: 2px; top: 2px;" xmlns="http://www.w3.org/2000/svg" viewBox="0 0 52.28 43.49"><g><g></g><g><g transform="translate(0.5,0.5)" style="visibility: visible;"><path d="M 6 9 C 6 8 7 7 8 7 L 31 7 C 32 7 32 8 33 8 C 33 8 33 9 33 9 L 33 23 C 29 21 24 21 20 23 C 15 25 10 25 6 23 Z" fill="#ffffff" stroke="#000000" stroke-miterlimit="10" pointer-events="all"></path><path d="M 4 11 C 4 10 5 9 6 9 L 30 9 C 31 9 31 10 31 11 L 31 25 C 27 23 22 23 18 25 C 13 27 9 27 4 25 Z" fill="#ffffff" stroke="#000000" stroke-miterlimit="10" pointer-events="all"></path><path d="M 2 13 C 2 12 3 11 4 11 L 28 11 C 29 11 30 12 30 13 L 30 27 C 25 25 20 25 16 27 C 12 28 7 28 2 27 Z" fill="#ffffff" stroke="#000000" stroke-miterlimit="10" pointer-events="all"></path></g></g><g></g><g></g></g></svg>