<svg style="width: 36px; height: 36px; display: block; position: relative; overflow: hidden; cursor: move; left: 2px; top: 2px;" xmlns="http://www.w3.org/2000/svg" viewBox="0 0 52.28 43.49"><g><g></g><g><g transform="translate(0.5,0.5)" style="visibility: visible;"><path d="M 19 3 L 33 17 C 33 17 33 18 33 18 C 33 18 33 18 33 19 L 19 33 C 18 33 18 33 18 33 C 18 33 17 33 17 33 L 3 19 C 3 18 2 18 2 18 C 2 18 3 17 3 17 L 17 3 C 17 3 18 2 18 2 C 18 2 18 3 19 3 Z" fill="#ffffff" stroke="#000000" stroke-miterlimit="10" pointer-events="all"></path><path d="M 2 18 L 33 18" fill="none" stroke="white" stroke-miterlimit="10" pointer-events="stroke" visibility="hidden" stroke-width="9"></path><path d="M 2 18 L 33 18" fill="none" stroke="#000000" stroke-miterlimit="10"></path></g></g><g></g><g></g></g></svg>