<svg id="Hover" xmlns="http://www.w3.org/2000/svg" viewBox="0 0 87.8 90.95"><defs><style>.cls-1,.cls-2,.cls-5,.cls-6{fill:#fff;}.cls-1{opacity:0.2;}.cls-3,.cls-4{fill:#3162a8;}.cls-4{stroke:#fff;}.cls-4,.cls-5,.cls-6{stroke-miterlimit:10;}.cls-4,.cls-5{stroke-width:0.85px;}.cls-5,.cls-6{stroke:#3162a8;}.cls-6{stroke-width:2.83px;}</style></defs><title>Activity Fabric_New_Entity_Schedule_active_icon</title><path id="Hover-2" data-name="Hover" class="cls-1" d="M285.22,280.17a43.9,43.9,0,1,0-62.54-.33,8.7,8.7,0,0,0,4,16.41h53.92A8.69,8.69,0,0,0,285.22,280.17Z" transform="translate(-210.21 -205.3)"/><circle class="cls-2" cx="44.53" cy="43.55" r="29.99"/><rect class="cls-3" x="24.85" y="30.41" width="32.9" height="26.83" rx="2.16" ry="2.16"/><rect class="cls-4" x="29.93" y="26.07" width="4.16" height="7.33" rx="1" ry="1"/><rect class="cls-4" x="48.94" y="26.07" width="4.16" height="7.33" rx="1" ry="1"/><rect class="cls-5" x="26.34" y="36.16" width="29.75" height="19.25" rx="2" ry="2"/><rect class="cls-3" x="29.09" y="38.24" width="3.46" height="3.46"/><rect class="cls-3" x="29.09" y="44.05" width="3.46" height="3.46"/><rect class="cls-3" x="29.09" y="49.8" width="3.46" height="3.46"/><rect class="cls-3" x="34.34" y="38.26" width="3.46" height="3.46"/><rect class="cls-3" x="34.34" y="44.07" width="3.46" height="3.46"/><rect class="cls-3" x="34.34" y="49.83" width="3.46" height="3.46"/><rect class="cls-3" x="39.57" y="38.27" width="3.46" height="3.46"/><rect class="cls-3" x="39.57" y="44.08" width="3.46" height="3.46"/><rect class="cls-3" x="39.57" y="49.83" width="3.46" height="3.46"/><rect class="cls-3" x="44.7" y="38.29" width="3.46" height="3.46"/><rect class="cls-3" x="44.7" y="44.11" width="3.46" height="3.46"/><rect class="cls-3" x="44.7" y="49.86" width="3.46" height="3.46"/><rect class="cls-3" x="49.96" y="38.36" width="3.46" height="3.46"/><rect class="cls-3" x="49.96" y="44.17" width="3.46" height="3.46"/><rect class="cls-3" x="49.96" y="49.92" width="3.46" height="3.46"/><circle class="cls-6" cx="53.1" cy="52.32" r="9.5"/><rect class="cls-3" x="52.14" y="45.9" width="1.92" height="7.79" rx="0.96" ry="0.96"/><rect class="cls-3" x="263.92" y="255.5" width="1.92" height="5.06" rx="0.96" ry="0.96" transform="translate(-203.36 317.61) rotate(-90)"/></svg>