<svg id="Category" xmlns="http://www.w3.org/2000/svg" viewBox="0 0 59.81 59.81"><defs><style>.cls-1{fill:#fff;}.cls-2{fill:#3162a8;}</style></defs><title>Activity Fabric_New_Entity_Category_icon</title><circle class="cls-1" cx="29.91" cy="29.91" r="29.91"/><path class="cls-2" d="M268.18,260.72h-27.4a1.21,1.21,0,0,1-1.21-1.21V240.93a1.21,1.21,0,0,1,1.21-1.21h27.4a1.21,1.21,0,0,1,1.21,1.21v18.58A1.21,1.21,0,0,1,268.18,260.72Z" transform="translate(-224.57 -219.02)"/><path class="cls-2" d="M251.82,241.51H239.57v-3.72a0.63,0.63,0,0,1,.63-0.63h9.22a1.08,1.08,0,0,1,.63.63l0.8,1.7a0.7,0.7,0,0,0,.67.24Z" transform="translate(-224.57 -219.02)"/></svg>