<svg id="Hover" xmlns="http://www.w3.org/2000/svg" viewBox="0 0 87.8 90.95"><defs><style>.cls-1,.cls-2{fill:#fff;}.cls-1{opacity:0.2;}.cls-3{fill:#3162a8;}</style></defs><title>Activity Fabric_New_Entity_Category_active_icon</title><path id="Hover-2" data-name="Hover" class="cls-1" d="M285.22,280.17a43.9,43.9,0,1,0-62.54-.33,8.7,8.7,0,0,0,4,16.41h53.92A8.69,8.69,0,0,0,285.22,280.17Z" transform="translate(-210.21 -205.3)"/><circle class="cls-2" cx="44.27" cy="43.63" r="29.91"/><path class="cls-3" d="M268.18,260.72h-27.4a1.21,1.21,0,0,1-1.21-1.21V240.93a1.21,1.21,0,0,1,1.21-1.21h27.4a1.21,1.21,0,0,1,1.21,1.21v18.58A1.21,1.21,0,0,1,268.18,260.72Z" transform="translate(-210.21 -205.3)"/><path class="cls-3" d="M251.82,241.51H239.57v-3.72a0.63,0.63,0,0,1,.63-0.63h9.22a1.08,1.08,0,0,1,.63.63l0.8,1.7a0.7,0.7,0,0,0,.67.24Z" transform="translate(-210.21 -205.3)"/></svg>