<svg id="Schedule" xmlns="http://www.w3.org/2000/svg" viewBox="0 0 59.99 59.99"><defs><style>.cls-1,.cls-4,.cls-5{fill:#fff;}.cls-2,.cls-3{fill:#3162a8;}.cls-3{stroke:#fff;}.cls-3,.cls-4,.cls-5{stroke-miterlimit:10;}.cls-3,.cls-4{stroke-width:0.85px;}.cls-4,.cls-5{stroke:#3162a8;}.cls-5{stroke-width:2.83px;}</style></defs><title>Activity Fabric_New_Entity_Schedule_icon</title><circle class="cls-1" cx="29.99" cy="29.99" r="29.99"/><rect class="cls-2" x="10.32" y="16.85" width="32.9" height="26.83" rx="2.16" ry="2.16"/><rect class="cls-3" x="15.39" y="12.51" width="4.16" height="7.33" rx="1" ry="1"/><rect class="cls-3" x="34.41" y="12.51" width="4.16" height="7.33" rx="1" ry="1"/><rect class="cls-4" x="11.8" y="22.6" width="29.75" height="19.25" rx="2" ry="2"/><rect class="cls-2" x="14.55" y="24.68" width="3.46" height="3.46"/><rect class="cls-2" x="14.55" y="30.49" width="3.46" height="3.46"/><rect class="cls-2" x="14.55" y="36.24" width="3.46" height="3.46"/><rect class="cls-2" x="19.8" y="24.7" width="3.46" height="3.46"/><rect class="cls-2" x="19.8" y="30.52" width="3.46" height="3.46"/><rect class="cls-2" x="19.8" y="36.27" width="3.46" height="3.46"/><rect class="cls-2" x="25.04" y="24.71" width="3.46" height="3.46"/><rect class="cls-2" x="25.04" y="30.52" width="3.46" height="3.46"/><rect class="cls-2" x="25.04" y="36.27" width="3.46" height="3.46"/><rect class="cls-2" x="30.16" y="24.73" width="3.46" height="3.46"/><rect class="cls-2" x="30.16" y="30.55" width="3.46" height="3.46"/><rect class="cls-2" x="30.16" y="36.3" width="3.46" height="3.46"/><rect class="cls-2" x="35.43" y="24.8" width="3.46" height="3.46"/><rect class="cls-2" x="35.43" y="30.61" width="3.46" height="3.46"/><rect class="cls-2" x="35.43" y="36.36" width="3.46" height="3.46"/><circle class="cls-5" cx="38.57" cy="38.76" r="9.5"/><rect class="cls-2" x="37.61" y="32.34" width="1.92" height="7.79" rx="0.96" ry="0.96"/><rect class="cls-2" x="263.92" y="255.5" width="1.92" height="5.06" rx="0.96" ry="0.96" transform="translate(-217.89 304.05) rotate(-90)"/></svg>