<svg id="Workflow" xmlns="http://www.w3.org/2000/svg" viewBox="0 0 59.99 59.99"><defs><style>.cls-1{fill:#fff;}.cls-2{fill:#3162a8;}.cls-3{fill:none;stroke:#3162a8;stroke-miterlimit:10;}</style></defs><title>Activity Fabric_New_Entity_Workflow_icon</title><circle class="cls-1" cx="29.99" cy="29.99" r="29.99"/><path class="cls-2" d="M259.75,254.46a4.47,4.47,0,0,1,3.8-3.73,14,14,0,0,0-2.11-5.52,4.47,4.47,0,0,1-6.64-5.4,14.08,14.08,0,0,0-5.94-.93,4.47,4.47,0,0,1-8,3.1,14,14,0,0,0-3.7,4.6,4.47,4.47,0,0,1-1.32,8.46,14,14,0,0,0,2.14,5.53,4.47,4.47,0,0,1,6.85,4.45,4.52,4.52,0,0,1-.24.89,14.1,14.1,0,0,0,5.89.93,4.47,4.47,0,0,1,7.94-3,14,14,0,0,0,3.75-4.61A4.47,4.47,0,0,1,259.75,254.46Zm-11.26,6.12a7.83,7.83,0,1,1,9-6.51A7.83,7.83,0,0,1,248.49,260.58Z" transform="translate(-224.48 -219.3)"/><circle class="cls-3" cx="25.3" cy="33.58" r="4.58"/><path class="cls-2" d="M277.7,249.09q-2,5.37-8.08,10.74A17.82,17.82,0,0,0,266,249.09H277.7Z" transform="translate(-224.48 -219.3)"/><path class="cls-2" d="M276,250.05c-5.61-27-34.08-20.81-40.58-9.3,10.67-9.83,28.94-8.83,33.5,9.3H276Z" transform="translate(-224.48 -219.3)"/></svg>