<svg id="Hover" xmlns="http://www.w3.org/2000/svg" viewBox="0 0 87.8 90.95"><defs><style>.cls-1,.cls-2{fill:#fff;}.cls-1{opacity:0.2;}.cls-3{fill:#3162a8;}.cls-4{fill:none;stroke:#3162a8;stroke-miterlimit:10;}</style></defs><title>Activity Fabric_New_Entity_Workflow_active_icon</title><path id="Hover-2" data-name="Hover" class="cls-1" d="M285.22,280.17a43.9,43.9,0,1,0-62.54-.33,8.7,8.7,0,0,0,4,16.41h53.92A8.69,8.69,0,0,0,285.22,280.17Z" transform="translate(-210.21 -205.3)"/><circle class="cls-2" cx="44.27" cy="44" r="29.99"/><path class="cls-3" d="M259.75,254.46a4.47,4.47,0,0,1,3.8-3.73,14,14,0,0,0-2.11-5.52,4.47,4.47,0,0,1-6.64-5.4,14.08,14.08,0,0,0-5.94-.93,4.47,4.47,0,0,1-8,3.1,14,14,0,0,0-3.7,4.6,4.47,4.47,0,0,1-1.32,8.46,14,14,0,0,0,2.14,5.53,4.47,4.47,0,0,1,6.85,4.45,4.52,4.52,0,0,1-.24.89,14.1,14.1,0,0,0,5.89.93,4.47,4.47,0,0,1,7.94-3,14,14,0,0,0,3.75-4.61A4.47,4.47,0,0,1,259.75,254.46Zm-11.26,6.12a7.83,7.83,0,1,1,9-6.51A7.83,7.83,0,0,1,248.49,260.58Z" transform="translate(-210.21 -205.3)"/><circle class="cls-4" cx="39.58" cy="47.58" r="4.58"/><path class="cls-3" d="M277.7,249.09q-2,5.37-8.08,10.74A17.82,17.82,0,0,0,266,249.09H277.7Z" transform="translate(-210.21 -205.3)"/><path class="cls-3" d="M276,250.05c-5.61-27-34.08-20.81-40.58-9.3,10.67-9.83,28.94-8.83,33.5,9.3H276Z" transform="translate(-210.21 -205.3)"/></svg>