<svg id="Hover" xmlns="http://www.w3.org/2000/svg" viewBox="0 0 87.8 90.95"><defs><style>.cls-1,.cls-2,.cls-4{fill:#fff;}.cls-1{opacity:0.2;}.cls-3{fill:#3162a8;}.cls-4{stroke:#3162a8;stroke-miterlimit:10;stroke-width:2.83px;}</style></defs><title>Activity Fabric_New_Entity_Collection_active_icon</title><path id="Hover-2" data-name="Hover" class="cls-1" d="M285.22,280.17a43.9,43.9,0,1,0-62.54-.33,8.7,8.7,0,0,0,4,16.41h53.92A8.69,8.69,0,0,0,285.22,280.17Z" transform="translate(-210.21 -205.3)"/><circle class="cls-2" cx="44.42" cy="43.96" r="29.99"/><rect class="cls-3" x="227.54" y="245.13" width="28.41" height="6.05" transform="translate(279.69 -198.9) rotate(90)"/><rect class="cls-3" x="234.55" y="245.13" width="28.41" height="6.05" transform="translate(286.7 -205.9) rotate(90)"/><rect class="cls-3" x="241.55" y="245.13" width="28.41" height="6.05" transform="translate(293.7 -212.91) rotate(90)"/><rect class="cls-3" x="251.56" y="245.13" width="28.41" height="6.05" transform="translate(235.4 -273.17) rotate(76.61)"/><line class="cls-4" x1="25.44" y1="59.06" x2="63.69" y2="59.06"/></svg>