<?xml version="1.0" standalone="no"?>
<!DOCTYPE svg PUBLIC "-//W3C//DTD SVG 20010904//EN"
 "http://www.w3.org/TR/2001/REC-SVG-20010904/DTD/svg10.dtd">
<svg version="1.0" xmlns="http://www.w3.org/2000/svg"
 width="128.000000pt" height="128.000000pt" viewBox="0 0 128.000000 128.000000"
 preserveAspectRatio="xMidYMid meet">
<metadata>
Created by potrace 1.15, written by Peter Selinger 2001-2017
</metadata>
<g transform="translate(0.000000,128.000000) scale(0.100000,-0.100000)"
fill="#000000" stroke="none">
<path d="M360 1225 l0 -55 -120 0 -120 0 0 -85 0 -85 405 0 405 0 0 85 0 85
-120 0 -120 0 0 55 0 55 -165 0 -165 0 0 -55z"/>
<path d="M180 490 l0 -420 85 0 85 0 0 420 0 420 -85 0 -85 0 0 -420z"/>
<path d="M440 490 l0 -420 60 0 c33 0 60 2 60 4 0 2 -12 30 -26 61 -54 118
-41 254 37 367 l39 58 0 175 0 175 -85 0 -85 0 0 -420z"/>
<path d="M700 766 l0 -144 41 15 c23 7 61 16 85 20 l44 6 0 123 0 124 -85 0
-85 0 0 -144z"/>
<path d="M755 547 c-125 -59 -189 -192 -160 -327 17 -78 72 -148 149 -188 67
-35 177 -38 246 -6 175 82 221 308 92 455 -73 84 -225 114 -327 66z m75 -152
l44 -45 48 47 48 47 30 -29 30 -29 -47 -48 -47 -48 47 -48 47 -48 -32 -32 -32
-32 -48 47 -48 47 -48 -47 -48 -47 -29 30 -29 31 47 47 47 47 -47 47 -47 48
29 30 c16 16 31 30 35 30 3 0 26 -20 50 -45z"/>
</g>
</svg>
