<svg id="Layer_1" data-name="Layer 1" xmlns="http://www.w3.org/2000/svg" viewBox="0 0 59.81 72.67"><defs><style>.cls-1,.cls-2{fill:#fff;}.cls-2{font-size:10.35px;font-family:Myriad Pro;}.cls-3{fill:#3162a8;}</style></defs><title>Category_1</title><circle class="cls-1" cx="29.91" cy="29.91" r="29.91"/><text class="cls-2" transform="translate(9.86 70.08)">C<tspan x="5.93" y="0">a</tspan><tspan x="10.88" y="0">t</tspan><tspan x="14.24" y="0">ego</tspan><tspan x="30.89" y="0">r</tspan><tspan x="34.54" y="0">y</tspan></text><path class="cls-3" d="M264.06,254.84h-27.4a1.21,1.21,0,0,1-1.21-1.21V235a1.21,1.21,0,0,1,1.21-1.21h27.4a1.21,1.21,0,0,1,1.21,1.21v18.58A1.21,1.21,0,0,1,264.06,254.84Z" transform="translate(-220.45 -213.14)"/><path class="cls-3" d="M247.7,235.63H235.45V231.9a0.63,0.63,0,0,1,.63-0.63h9.22a1.08,1.08,0,0,1,.63.63l0.8,1.7a0.7,0.7,0,0,0,.67.24Z" transform="translate(-220.45 -213.14)"/></svg>