<?xml version="1.0" standalone="no"?>
<!DOCTYPE svg PUBLIC "-//W3C//DTD SVG 20010904//EN"
 "http://www.w3.org/TR/2001/REC-SVG-20010904/DTD/svg10.dtd">
<svg version="1.0" xmlns="http://www.w3.org/2000/svg"
 width="512.000000pt" height="512.000000pt" viewBox="0 0 512.000000 512.000000"
 preserveAspectRatio="xMidYMid meet">
<metadata>
Created by potrace 1.15, written by Peter Selinger 2001-2017
</metadata>
<g transform="translate(0.000000,512.000000) scale(0.100000,-0.100000)"
fill="white" stroke="none">
<path d="M1893 4800 c-154 -40 -282 -110 -392 -214 -42 -40 -151 -170 -151
-180 0 -3 -14 -27 -30 -53 -78 -123 -149 -371 -153 -533 -1 -74 2 -91 23 -129
39 -69 69 -86 154 -86 62 0 76 4 103 25 47 37 70 93 82 203 21 186 109 385
211 481 70 65 163 115 248 133 88 18 215 14 280 -9 89 -32 227 -151 306 -263
186 -264 317 -693 320 -1048 l1 -138 51 -53 c42 -43 54 -64 69 -119 28 -104 6
-201 -63 -278 -63 -71 -118 -94 -217 -94 -90 0 -149 23 -209 81 -57 56 -81
117 -81 209 0 95 25 154 91 215 46 43 74 115 95 250 17 109 7 306 -20 406
l-23 82 -117 115 c-149 147 -211 181 -325 175 -146 -7 -105 28 -1009 -876
-445 -445 -807 -815 -807 -825 0 -9 -4 -17 -10 -17 -12 0 -14 -147 -2 -152 4
-1 18 -37 31 -78 55 -175 200 -413 396 -650 177 -214 379 -419 570 -579 180
-149 208 -170 405 -302 55 -36 248 -128 307 -145 35 -11 63 -22 63 -26 0 -5
36 -8 81 -8 73 0 84 3 122 29 23 16 398 386 833 823 770 772 791 795 823 865
42 94 44 168 6 250 -22 50 -75 107 -361 393 l-334 335 -4 155 c-5 187 -17 270
-63 460 -151 626 -470 1054 -874 1174 -78 24 -330 21 -426 -4z"/>
<path d="M3431 3262 c2 -6 205 -213 450 -460 246 -247 455 -464 464 -482 22
-42 22 -143 1 -193 -8 -21 -54 -101 -102 -179 -174 -285 -241 -436 -264 -597
-15 -104 -15 -246 0 -316 15 -71 75 -195 137 -282 133 -187 368 -309 506 -264
63 21 122 83 159 169 l33 77 3 700 c3 751 4 747 -49 900 -127 372 -500 678
-1039 856 -64 21 -151 45 -193 54 -43 9 -85 19 -94 22 -9 4 -14 2 -12 -5z"/>
</g>
</svg>
