<?xml version="1.0" standalone="no"?>
<!DOCTYPE svg PUBLIC "-//W3C//DTD SVG 20010904//EN"
 "http://www.w3.org/TR/2001/REC-SVG-20010904/DTD/svg10.dtd">
<svg version="1.0" xmlns="http://www.w3.org/2000/svg"
 width="1200.000000pt" height="630.000000pt" viewBox="0 0 1200.000000 630.000000"
 preserveAspectRatio="xMidYMid meet">
<metadata>
Created by potrace 1.15, written by Peter Selinger 2001-2017
</metadata>
<g transform="translate(0.000000,630.000000) scale(0.100000,-0.100000)"
fill="white" stroke="none">
<path d="M5736 6189 c-1285 -113 -2352 -1007 -2681 -2244 -270 -1014 -6 -2098
694 -2858 523 -568 1220 -908 1996 -976 325 -29 466 4 602 138 125 124 177
274 153 442 -13 88 -33 134 -105 231 -110 149 -155 254 -155 363 0 221 161
428 380 488 44 13 141 17 480 20 369 4 440 8 536 25 139 25 176 35 294 77 246
87 441 209 623 389 423 421 580 1001 451 1666 -215 1111 -1186 1991 -2429
2200 -279 47 -588 62 -839 39z m-487 -679 c161 -30 324 -174 383 -338 28 -78
30 -224 4 -302 -124 -368 -566 -480 -835 -211 -207 207 -204 510 7 717 117
115 279 165 441 134z m1714 -5 c224 -58 389 -265 389 -490 0 -136 -51 -254
-153 -356 -269 -269 -711 -157 -835 211 -26 78 -24 224 4 302 45 125 145 236
267 296 104 52 220 65 328 37z m-2666 -1368 c154 -57 289 -202 328 -354 30
-114 13 -252 -43 -357 -15 -28 -57 -81 -93 -119 -202 -204 -501 -205 -703 -3
-204 204 -207 503 -7 704 62 62 136 109 206 132 90 30 226 28 312 -3z m3719 3
c197 -65 354 -275 354 -477 0 -299 -289 -553 -577 -505 -193 32 -369 191 -418
377 -19 75 -19 174 0 248 39 152 174 297 328 354 85 31 222 32 313 3z"/>
</g>
</svg>
