<svg id="Treee_view_to_Graph_view" data-name="Treee view to Graph view" xmlns="http://www.w3.org/2000/svg" viewBox="0 0 77.78 33.19"><defs><style>.cls-1,.cls-3{fill:#3162a8;}.cls-1{stroke:#000;}.cls-1,.cls-4,.cls-5{stroke-miterlimit:10;stroke-width:0.85px;}.cls-2{fill:#fff;}.cls-4,.cls-5{fill:none;}.cls-4{stroke:#3162a8;}.cls-5{stroke:#fff;}</style></defs><title>TreeView_ON</title><rect class="cls-1" x="0.43" y="0.43" width="76.93" height="32.34" rx="3.62" ry="3.62"/><g id="Tree_Blue" data-name="Tree Blue"><rect class="cls-2" x="8.36" y="3.95" width="27.38" height="24.75" rx="2" ry="2"/><rect class="cls-3" x="13.36" y="6.54" width="7.9" height="4.84" rx="0.97" ry="0.97"/><rect class="cls-3" x="23.12" y="14.18" width="7.9" height="4.84" rx="0.97" ry="0.97"/><rect class="cls-3" x="23.12" y="21.55" width="7.9" height="4.84" rx="0.97" ry="0.97"/><polyline class="cls-4" points="27.08 16.77 27.08 8.96 17.25 8.96 17.31 23.97 27.08 23.97"/></g><g id="Graph_wihte" data-name="Graph wihte"><circle class="cls-2" cx="51.43" cy="10.97" r="4.43"/><circle class="cls-2" cx="63.15" cy="13.99" r="2.61"/><circle class="cls-2" cx="56.67" cy="23.97" r="2.42"/><line class="cls-5" x1="51.43" y1="10.97" x2="63.15" y2="13.99"/><line class="cls-5" x1="56.67" y1="23.97" x2="51.43" y2="10.97"/><line class="cls-5" x1="63.15" y1="13.99" x2="56.67" y2="23.97"/></g></svg>