<svg id="Hover" xmlns="http://www.w3.org/2000/svg" viewBox="0 0 87.8 90.95"><defs><style>.cls-1,.cls-2{fill:#fff;}.cls-1{opacity:0.2;}.cls-3{fill:#3162a8;stroke:#fff;stroke-miterlimit:10;stroke-width:0.85px;}</style></defs><title>BI_New_Entity_Dashboard_active_icon</title><path id="Hover-2" data-name="Hover" class="cls-1" d="M285.22,280.17a43.9,43.9,0,1,0-62.54-.33,8.7,8.7,0,0,0,4,16.41h53.92A8.69,8.69,0,0,0,285.22,280.17Z" transform="translate(-210.21 -205.3)"/><circle class="cls-2" cx="43.95" cy="43.23" r="29.99"/><rect class="cls-3" x="35.65" y="25.54" width="29.32" height="21.62" rx="2.26" ry="2.26"/><polygon class="cls-2" points="40.99 41.32 40.99 28.47 43.02 28.47 43.05 34.89 45.03 34.89 45.03 31.35 46.6 31.35 46.6 37.21 49.36 37.21 49.36 28.88 51.44 28.88 51.44 35.65 53.69 35.65 53.69 31.66 55.94 31.66 55.94 41.32 58.28 41.32 58.28 33.61 60.73 33.61 60.73 43.79 40.99 43.79 40.99 41.32"/><rect class="cls-3" x="23.24" y="39.09" width="29.32" height="21.62" rx="2.26" ry="2.26"/><path class="cls-2" d="M249,247.83c-13.82-1.14-11.54,19.59,2,14.79l-3.82-7.07Z" transform="translate(-210.21 -205.3)"/><path class="cls-2" d="M250.11,247.42l-2,7.64,7.88,2.28C257.06,252.79,253.77,247.79,250.11,247.42Z" transform="translate(-210.21 -205.3)"/><path class="cls-2" d="M252.13,262.87a8,8,0,0,0,3.55-4.47l-7.15-2Z" transform="translate(-210.21 -205.3)"/></svg>