<svg id="Dashboard" xmlns="http://www.w3.org/2000/svg" viewBox="0 0 59.99 59.99"><defs><style>.cls-1{fill:#fff;}.cls-2{fill:#3162a8;stroke:#fff;stroke-miterlimit:10;stroke-width:0.85px;}</style></defs><title>BI_New_Entity_Dashboard_icon</title><circle class="cls-1" cx="29.99" cy="29.99" r="29.99"/><rect class="cls-2" x="21.69" y="12.31" width="29.32" height="21.62" rx="2.26" ry="2.26"/><polygon class="cls-1" points="27.03 28.09 27.03 15.23 29.06 15.23 29.09 21.66 31.08 21.66 31.08 18.11 32.64 18.11 32.64 23.97 35.4 23.97 35.4 15.64 37.48 15.64 37.48 22.42 39.73 22.42 39.73 18.42 41.98 18.42 41.98 28.09 44.33 28.09 44.33 20.37 46.77 20.37 46.77 30.55 27.03 30.55 27.03 28.09"/><rect class="cls-2" x="9.28" y="25.85" width="29.32" height="21.62" rx="2.26" ry="2.26"/><path class="cls-1" d="M249,247.83c-13.82-1.14-11.54,19.59,2,14.79l-3.82-7.07Z" transform="translate(-224.17 -218.54)"/><path class="cls-1" d="M250.11,247.42l-2,7.64,7.88,2.28C257.06,252.79,253.77,247.79,250.11,247.42Z" transform="translate(-224.17 -218.54)"/><path class="cls-1" d="M252.13,262.87a8,8,0,0,0,3.55-4.47l-7.15-2Z" transform="translate(-224.17 -218.54)"/></svg>