<svg style="width: 36px; height: 36px; display: block; position: relative; overflow: hidden; cursor: move; left: 2px; top: 2px;" xmlns="http://www.w3.org/2000/svg" viewBox="0 0 52.28 43.49"><g><g></g><g><g transform="translate(0.5,0.5)" style="visibility: visible;"><path d="M 2 26 L 15 26 C 15 26 16 25 16 25 L 16 23 L 20 23 L 20 25 C 20 25 20 25 21 26 C 21 26 21 26 21 26 L 33 26 L 29 20 L 33 13 L 25 13 L 25 11 C 25 11 25 10 24 10 L 12 10 C 11 10 11 10 11 10 C 11 11 11 11 11 11 L 11 13 L 2 13 L 7 20 Z" fill="#ffffff" stroke="#000000" stroke-miterlimit="10" pointer-events="all"></path><path d="M 16 25 C 16 25 15 24 15 24 L 12 24 C 11 24 11 24 11 23 C 11 23 11 23 12 23 L 24 23 C 25 23 25 23 25 23 C 25 24 25 24 24 24 L 21 24 C 21 24 21 24 21 24 C 20 25 20 25 20 25 M 11 23 L 11 13 M 25 23 L 25 13" fill="none" stroke="white" stroke-miterlimit="10" pointer-events="stroke" visibility="hidden" stroke-width="9"></path><path d="M 16 25 C 16 25 15 24 15 24 L 12 24 C 11 24 11 24 11 23 C 11 23 11 23 12 23 L 24 23 C 25 23 25 23 25 23 C 25 24 25 24 24 24 L 21 24 C 21 24 21 24 21 24 C 20 25 20 25 20 25 M 11 23 L 11 13 M 25 23 L 25 13" fill="none" stroke="#000000" stroke-miterlimit="10"></path></g></g><g></g><g></g></g></svg>