<svg style="width: 36px; height: 36px; display: block; position: relative; overflow: hidden; cursor: move; left: 2px; top: 2px;" xmlns="http://www.w3.org/2000/svg" viewBox="0 0 52.28 43.49"><g><g></g><g><g transform="translate(0.5,0.5)" style="visibility: visible;"><path d="M 6 18 C 5 18 4 18 3 17 C 3 16 3 15 3 14 C 4 13 5 13 6 13 C 6 11 8 10 9 9 C 11 9 12 9 14 10 C 14 9 16 7 18 7 C 20 7 22 9 22 10 C 24 9 25 9 27 10 C 28 10 29 12 29 13 C 30 13 32 13 32 14 C 33 15 33 16 32 17 C 32 18 30 18 29 18 C 29 20 28 21 26 22 C 25 22 23 22 22 20 C 21 22 20 23 18 23 C 16 23 15 22 14 20 C 13 22 11 23 9 22 C 7 21 6 20 6 18 Z" fill="#ffffff" stroke="#000000" stroke-linejoin="round" stroke-miterlimit="10" pointer-events="all"></path><ellipse cx="7" cy="24" rx="2.030748810972238" ry="0.8970684039087949" fill="#ffffff" stroke="#000000" pointer-events="all"></ellipse><ellipse cx="5" cy="26" rx="1.2861409136157504" ry="0.5980456026058633" fill="#ffffff" stroke="#000000" pointer-events="all"></ellipse><ellipse cx="3" cy="27" rx="0.812299524388895" ry="0.4319218241042346" fill="#ffffff" stroke="#000000" pointer-events="all"></ellipse></g></g><g></g><g></g></g></svg>