<svg style="width: 36px; height: 36px; display: block; position: relative; overflow: hidden; cursor: move; left: 2px; top: 2px;" xmlns="http://www.w3.org/2000/svg" viewBox="0 0 52.28 43.49"><g><g></g><g><g transform="translate(0.5,0.5)" style="visibility: visible;"><path d="M 7 22 L 6 23 L 6 21 L 5 22 L 5 21 L 3 21 L 5 20 L 3 20 L 4 19 L 2 18 L 4 17 L 3 17 L 4 16 L 3 15 L 5 15 L 3 13 L 5 14 L 4 12 L 6 13 L 6 11 L 8 12 L 7 11 L 9 12 L 9 10 L 10 11 L 10 10 L 12 11 L 13 9 L 14 11 L 14 9 L 15 11 L 16 9 L 17 10 L 18 9 L 18 11 L 20 9 L 19 11 L 21 9 L 21 11 L 23 9 L 23 11 L 24 10 L 24 11 L 26 10 L 26 12 L 28 11 L 27 12 L 30 11 L 29 13 L 32 12 L 31 14 L 33 14 L 31 15 L 33 15 L 32 16 L 33 17 L 31 17 L 33 18 L 31 18 L 33 19 L 30 19 L 32 21 L 30 20 L 31 22 L 29 21 L 29 23 L 28 22 L 28 24 L 26 23 L 26 25 L 25 23 L 24 25 L 24 23 L 23 25 L 22 23 L 21 25 L 21 24 L 20 25 L 19 24 L 19 26 L 18 24 L 17 25 L 17 23 L 16 26 L 15 23 L 15 26 L 14 24 L 13 26 L 13 23 L 12 25 L 11 24 L 4 27 Z" fill="#ffffff" stroke="#000000" stroke-miterlimit="10" pointer-events="all"></path></g></g><g></g><g></g></g></svg>