<svg style="width: 36px; height: 36px; display: block; position: relative; overflow: hidden; cursor: move; left: 2px; top: 2px;" xmlns="http://www.w3.org/2000/svg" viewBox="0 0 52.28 43.49"><g><g></g><g><g transform="translate(0.5,0.5)" style="visibility: visible;"><path d="M 5 24 C 5 23 6 22 7 21 C 8 21 9 21 10 21 C 11 22 12 23 13 25 C 15 17 19 10 24 4 C 26 3 28 2 30 3 C 30 3 31 3 31 4 C 31 4 31 5 31 5 C 24 13 19 22 16 33 C 14 33 12 33 10 33 C 9 30 7 27 5 24 C 5 24 5 24 5 24 Z" fill="#ffffff" stroke="#000000" stroke-miterlimit="10" pointer-events="all"></path></g></g><g></g><g></g></g></svg>