<svg id="BG" xmlns="http://www.w3.org/2000/svg" viewBox="0 0 1920 1080"><defs><style>.cls-1,.cls-11,.cls-15,.cls-8{fill:#23437c;}.cls-2,.cls-3{fill:#1a355b;}.cls-3{stroke:#23437b;}.cls-10,.cls-12,.cls-13,.cls-14,.cls-3,.cls-4,.cls-5,.cls-6,.cls-7,.cls-9{stroke-miterlimit:10;}.cls-3,.cls-6{stroke-width:2.83px;}.cls-10,.cls-12,.cls-13,.cls-14,.cls-4,.cls-5,.cls-6,.cls-7,.cls-9{fill:none;stroke:#1a355b;}.cls-4{stroke-width:8.5px;}.cls-5{stroke-width:11.34px;}.cls-7{stroke-width:5.67px;}.cls-8{font-size:79.5px;font-family:Arial;font-weight:700;}.cls-9{stroke-width:1.98px;}.cls-10{stroke-width:4.25px;}.cls-11{opacity:0.2;}.cls-12{stroke-width:0.57px;}.cls-13{stroke-width:0.85px;}.cls-14{stroke-width:1.42px;}.cls-15{opacity:0.3;}.cls-16{font-size:74px;}.cls-16,.cls-18{fill:#fff;font-family:Myriad Pro;}.cls-17{letter-spacing:-1px;}.cls-18{font-size:28px;}</style></defs><title>Company name bg</title><rect class="cls-1" width="1920" height="1080"/><path class="cls-2" d="M1740.82,749.89c-40.37-3.32-33.72,57.23,5.7,43.22l-11.16-20.66Z"/><path class="cls-2" d="M1744.15,748.7L1738.21,771l23,6.65C1764.45,764.37,1754.83,749.76,1744.15,748.7Z"/><path class="cls-2" d="M1750,793.82c4.74-2.67,8.17-7,10.37-13.06l-20.9-5.94Z"/><path class="cls-2" d="M1771.76,675.06h-68.09c-4.18,0-7.59,2.88-7.59,6.39V817.14c0,3.52,3.42,6.39,7.59,6.39h68.09c4.18,0,7.59-2.88,7.59-6.39V681.46C1779.36,677.94,1775.94,675.06,1771.76,675.06Zm-42.7,11.09a1.88,1.88,0,0,1,2-1.69h13.53a1.88,1.88,0,0,1,2,1.69h0a1.88,1.88,0,0,1-2,1.69h-13.53a1.88,1.88,0,0,1-2-1.69h0Zm14.12,131h-10.91a2.84,2.84,0,1,1,0-5.6h10.91A2.84,2.84,0,1,1,1743.18,817.14Zm31.43-14h-73.07V694.25h73.07V803.16Z"/><path class="cls-3" d="M1493,610.45v89h44.5l27.05-28.21V610.45H1493Zm43.92,70.13H1509.9V670.4h27.05v10.18Zm11.93-21h-39V649.44h39v10.18Zm0-21h-39V628.48h39v10.18Z"/><polygon class="cls-2" points="1228.98 926.92 1211.38 946.29 1211.38 994.2 1260.24 994.2 1266.06 926.92 1228.98 926.92"/><polygon class="cls-2" points="1338.17 898.39 1317.29 957.57 1301.68 957.57 1294.5 859.65 1274.07 859.65 1263.5 994.2 1280.41 994.2 1304.36 994.2 1345.22 994.2 1408.62 994.2 1371.99 898.39 1338.17 898.39"/><polygon class="cls-2" points="1380.7 906.67 1414.52 994.2 1434 994.2 1397.37 906.67 1380.7 906.67"/><path class="cls-4" d="M1422.38,803.56a10.77,10.77,0,0,0-7.92,3.49,22.81,22.81,0,0,0-41,2.16,30.09,30.09,0,0,0-34.93,10.49A19.91,19.91,0,0,0,1305,831.63a9.59,9.59,0,1,0,3.14,13.47,19.91,19.91,0,0,0,27.59,5.67,30.35,30.35,0,0,0,11.1,12.39,10.52,10.52,0,1,0,18.65,4.54A30.25,30.25,0,0,0,1393,840.78c0.49,0,1,.07,1.47.07a22.8,22.8,0,0,0,22.12-17.33A10.82,10.82,0,1,0,1422.38,803.56Z"/><circle class="cls-2" cx="1564.58" cy="836.93" r="46.81"/><circle class="cls-2" cx="1360.29" cy="262.82" r="29.25"/><path class="cls-2" d="M1781.42,198.51a20.6,20.6,0,0,0-9.75-5.75L1741.17,207l-0.25-6.75,19-9.25c-13.45-1.41-33,3.88-57.25,14.25-28.3-8.21-55.47-15.83-73-18.5-8,1.56-13,4.62-14.75,9.25,2.3,6.32,22.75,18.51,41,30l-26.25,14.75-22.25-12c-8.38-1.16-12.72,1.08-13.25,6.5l12,21.5c-10.78,9-8.28,14.08,6.5,15.5,28.27-2.94,66.31-13.77,108.25-27.75C1756.7,230.08,1790,215.5,1781.42,198.51Z"/><path class="cls-2" d="M1703.17,257.76c0,3.89,16.73,22.25,27.8,32,8.09-1.4,12.93-6.31,14.95-14.25-1.2-12.55-2.2-26.62-4.5-30.75Z"/><rect class="cls-2" x="1653.67" y="436.13" width="98.83" height="12.33"/><path class="cls-2" d="M1758.84,484.63L1752.51,455h-98.83l-6.17,29.67v12.83h6.17v37.33h61.5V497.46H1740v37.33h12.5V497.46h6.33V484.63ZM1703.17,523h-37.83v-25.5h37.83V523Z"/><path class="cls-2" d="M245.85,203.83a15.62,15.62,0,0,1,3.08.31c0-.1,0-0.2,0-0.31a26,26,0,0,1,39.45-22.23,35.55,35.55,0,0,1,70.34,1.27,26.19,26.19,0,1,1,5.64,52v0.05H244.83v0A15.55,15.55,0,0,1,245.85,203.83Z"/><path class="cls-5" d="M1505.09,124.52a13.71,13.71,0,0,0-2.7.27c0-.09,0-0.18,0-0.27A22.82,22.82,0,0,0,1467.76,105a31.2,31.2,0,0,0-61.74,1.11,23,23,0,1,0-5,45.65v0H1506v0A13.65,13.65,0,0,0,1505.09,124.52Z"/><circle class="cls-2" cx="1635.25" cy="282.82" r="9.25"/><circle class="cls-2" cx="1635.25" cy="467.09" r="9.25"/><circle class="cls-2" cx="1360.29" cy="124.58" r="9.25"/><circle class="cls-2" cx="1679.24" cy="699.18" r="9.25"/><circle class="cls-2" cx="542.49" cy="745.98" r="9.25"/><circle class="cls-2" cx="1206.63" cy="926.92" r="9.25"/><path class="cls-6" d="M1360.29,124.58H1212.58a20.06,20.06,0,0,0-20,20V366.1"/><path class="cls-6" d="M1635.25,467.09H1428.62a20.43,20.43,0,0,0-20.3,20l-0.66,43.15a20.43,20.43,0,0,1-20.3,20H1228.58"/><circle class="cls-2" cx="1474.72" cy="628.51" r="9.25"/><path class="cls-6" d="M1474.72,628.51l-112.15.36a20.14,20.14,0,0,0-20,20.06v24.72a20.06,20.06,0,0,1-20,20h-139"/><path class="cls-6" d="M1679.24,699.18h-47.85a20.06,20.06,0,0,0-20,20v16.06a20.06,20.06,0,0,1-20,20h-482.8"/><path class="cls-6" d="M1206.63,926.92H1089a20.06,20.06,0,0,1-20-20V758.33"/><path class="cls-6" d="M360.29,476.34h86.87a20.06,20.06,0,0,1,20,20V548a20.06,20.06,0,0,0,20,20H693"/><path class="cls-6" d="M542.49,746V705a20.06,20.06,0,0,1,20-20H755"/><path class="cls-6" d="M153.45,746H335a20.06,20.06,0,0,0,20-20V643.42a20.06,20.06,0,0,1,20-20H737"/><path class="cls-2" d="M187,352.42V307.31l0.07,0L192,294,92.48,253.69l5.75-15.5c0.85-5.27-.49-9.12-4.49-11.25-5.61-.78-11.23,1.52-16.85,7.05-6.66,19.32-6.78,39.43-3.28,60v58.45H67.33v4.93H196.68v-4.93H187ZM76.34,293.56l1.51-.45,7.87-21.21,97.91,34.24v46.28h-20.8l-16.41-57.74-3-1.13h0l-5-1.86v0.05h0v0l-8.71-3.06-17.25,63.78H76.34V293.56Zm60.73,2.83a12.29,12.29,0,0,1,2.58.2l4.08,16.32a13.68,13.68,0,0,1-11.39-.05Zm-10.48,36.45a30.62,30.62,0,0,1,22.07-.22l5,19.8H121Z"/><circle class="cls-2" cx="202.11" cy="314.13" r="9.25"/><path class="cls-6" d="M202.11,314.13H522.49a20.06,20.06,0,0,1,20,20v23.38a20.06,20.06,0,0,0,20,20H729"/><path class="cls-4" d="M453.08,165.72a8.21,8.21,0,0,0-1.62.16c0-.05,0-0.11,0-0.16A13.66,13.66,0,0,0,430.73,154a18.68,18.68,0,0,0-37,.67,13.76,13.76,0,1,0-3,27.34v0h62.83v0A8.17,8.17,0,0,0,453.08,165.72Z"/><path class="cls-6" d="M627,233.57h32a20.06,20.06,0,0,1,20,20v16.19a20.06,20.06,0,0,0,20,20H829"/><path class="cls-6" d="M1360.29,262.82v41.52a20.06,20.06,0,0,1-20,20h-14a20.06,20.06,0,0,1-20-20V197.67a20.06,20.06,0,0,0-20-20h-14a20.06,20.06,0,0,0-20,20v142a20.06,20.06,0,0,1-20,20h-36"/><path class="cls-6" d="M818.5,889.58H871a20.06,20.06,0,0,0,20-20V774"/><path class="cls-6" d="M448.81,400.75v16c0,8.78,9,16,20,16h77.86a20.06,20.06,0,0,1,20,20v6a20.06,20.06,0,0,0,20,20H690.33"/><path class="cls-6" d="M1113.67,734.33V842.65a20.06,20.06,0,0,0,20,20H1175a20.06,20.06,0,0,0,20-20V799.08a20.06,20.06,0,0,1,20-20h249a20.06,20.06,0,0,1,20,20V921.67a20.06,20.06,0,0,0,20,20h40.61a20.06,20.06,0,0,0,20-20V836.93"/><circle class="cls-2" cx="263.53" cy="932.49" r="9.25"/><path class="cls-6" d="M263.53,932.49V843.74a20.06,20.06,0,0,1,20-20h104.8a20.06,20.06,0,0,0,20-20V678.33a20.06,20.06,0,0,1,20-20H723"/><circle class="cls-2" cx="360.29" cy="476.34" r="9.25"/><path class="cls-2" d="M339.86,419.64H205.43a3.33,3.33,0,0,0-3.32,3.32v38.86H182a4,4,0,0,0-4,4v67h6.6l1.19-4.11h33.92l1.08,4.11h6.34V516.73h30l-2.12,14.38L249.41,533h46.75l-6.64-2.2-1.26-14.11h51.61a3.33,3.33,0,0,0,3.32-3.32V423A3.33,3.33,0,0,0,339.86,419.64ZM186.62,467.09H195a2,2,0,0,1,0,3.91h-8.42A2,2,0,0,1,186.62,467.09Zm-2,10.91h36v5h-36v-5Zm0,14v-5h36v5h-36Zm153.53,6.74H227.09V465.82a4,4,0,0,0-4-4H207.37V424.89H338.2v73.85Z"/><rect class="cls-2" x="306.25" y="439.75" width="14.25" height="47.26"/><rect class="cls-2" x="285.75" y="454.5" width="14.25" height="32.51"/><rect class="cls-2" x="265.25" y="443.25" width="14.25" height="43.76"/><rect class="cls-2" x="245.08" y="467.09" width="14.25" height="19.92"/><path class="cls-6" d="M981.09,245.34V68.12a20.06,20.06,0,0,1,20-20h614.16a20.06,20.06,0,0,1,20,20v36.47a20.06,20.06,0,0,0,20,20H1920"/><path class="cls-6" d="M841.6,255.1H749a20.06,20.06,0,0,1-20-20V171.81a20.06,20.06,0,0,0-20-20H530a20.06,20.06,0,0,0-20,20v71a20.42,20.42,0,0,1-20,20.29L227.36,267c-11,.16-26.4-6-34.23-13.76l-53-52.39c-7.83-7.73-14.23-23.05-14.23-34.05V0"/><circle class="cls-2" cx="358.79" cy="147.63" r="9.25"/><path class="cls-6" d="M880,245.34V52a20.06,20.06,0,0,0-20-20H378.79a20.06,20.06,0,0,0-20,20v95.63"/><circle class="cls-2" cx="970.3" cy="994.2" r="46.81"/><circle class="cls-2" cx="1824.3" cy="345.82" r="46.81"/><path class="cls-6" d="M970.3,796.17V827.8a10,10,0,0,0,10,10h16a10,10,0,0,1,10,10v9.34a10,10,0,0,1-10,10h-16a10,10,0,0,0-10,10v8.46a10,10,0,0,0,10,10h16a10,10,0,0,1,10,10v9.25a9.65,9.65,0,0,1-10,9.68l-16-.52a9.65,9.65,0,0,0-10,9.68v44"/><path class="cls-6" d="M1088.92,164v15.76a10,10,0,0,0,10,10h12.58a10,10,0,0,1,10,10V208a10,10,0,0,1-10,10h-12.58a10,10,0,0,0-10,10v29.5"/><path class="cls-6" d="M809,723.67L704.84,824.83c-3.95,3.83-7.17,11.47-7.17,17v112.6a10,10,0,0,0,10,10h22a10,10,0,0,1,10,10v15.94a10,10,0,0,1-10,10h-22a10,10,0,0,0-10,10V1025a10,10,0,0,0,10,10h22.67a10,10,0,0,1,10,10v35"/><path class="cls-2" d="M1088.92,77.78a46.81,46.81,0,1,0,46.81,46.81A46.81,46.81,0,0,0,1088.92,77.78Zm28.22,47.79c-2,.55-3.14,1.46-2.51,3.19,0,0,1.54,1.65,1.37,2.51s-2.51,1.6-2.51,1.6a2.53,2.53,0,0,1,1.83.91c0.4,0.8-2.17,2.28-3.19,4.33a11.24,11.24,0,0,1,1.37,5,3.64,3.64,0,0,1-3.68,2.85c-10.75-1-11.66,2.4-12.52,13.35l-26.69-8.17c5.47-19-9.92-20.8-7.76-42.24,2.42-11.34,10.3-17.06,22.36-18.48,7.2-.54,13.3,1.32,18.25,5.7,6.45,7.25,9.31,13.22,6.36,17.11l8.47,10Q1118.85,125.25,1117.14,125.57Z"/><path class="cls-2" d="M1083.16,102.51a3.57,3.57,0,0,1-3.7,2.1,11.15,11.15,0,0,0,.5,4.69,3.57,3.57,0,0,1,4,5.52,11.23,11.23,0,0,0,4.39,1.93,3.57,3.57,0,0,1,6.78-.76,11.16,11.16,0,0,0,3.79-2.79,3.57,3.57,0,0,1,2.74-6.25,11.15,11.15,0,0,0-.52-4.7,3.57,3.57,0,0,1-4.37-4.83,3.6,3.6,0,0,1,.37-0.64,11.25,11.25,0,0,0-4.35-1.92,3.57,3.57,0,0,1-6.75.73,11.17,11.17,0,0,0-3.84,2.79A3.57,3.57,0,0,1,1083.16,102.51Zm9.94-2.42a6.25,6.25,0,1,1-8.23,3.19A6.25,6.25,0,0,1,1093.1,100.09Z"/><path class="cls-2" d="M1071.82,113.17a2.59,2.59,0,0,1-3.06.34,8.09,8.09,0,0,0-1,3.27,2.59,2.59,0,0,1,1.09,4.83,8.15,8.15,0,0,0,2.37,2.55,2.59,2.59,0,0,1,4.73,1.44,8.1,8.1,0,0,0,3.32-.77,2.59,2.59,0,0,1,3.62-3.37,8.09,8.09,0,0,0,1-3.28,2.59,2.59,0,0,1-1.52-4.47,2.61,2.61,0,0,1,.43-0.32,8.16,8.16,0,0,0-2.34-2.53,2.59,2.59,0,0,1-4.7-1.45,8.1,8.1,0,0,0-3.35.76A2.59,2.59,0,0,1,1071.82,113.17Zm7.31,1.24a4.53,4.53,0,1,1-6.4-.24A4.53,4.53,0,0,1,1079.13,114.41Z"/><path class="cls-2" d="M1089,118.19a1.83,1.83,0,0,1-2.12-.51,5.71,5.71,0,0,0-1.45,1.93,1.83,1.83,0,0,1-.43,3.47,5.75,5.75,0,0,0,1,2.26,1.83,1.83,0,0,1,2.8,2.09,5.72,5.72,0,0,0,2.39.29,1.83,1.83,0,0,1,3.21-1.38,5.71,5.71,0,0,0,1.45-1.94,1.83,1.83,0,0,1,.06-3.34,1.85,1.85,0,0,1,.36-0.11,5.76,5.76,0,0,0-1-2.24,1.83,1.83,0,0,1-2.77-2.09,5.72,5.72,0,0,0-2.41-.3A1.83,1.83,0,0,1,1089,118.19Zm4.56,2.57a3.2,3.2,0,1,1-4.2-1.69A3.2,3.2,0,0,1,1093.51,120.76Z"/><path class="cls-2" d="M589.3,186.76a46.81,46.81,0,1,0,46.81,46.81A46.81,46.81,0,0,0,589.3,186.76Zm-0.31,82s-29.19-7.92-29.19-55c12.59-.73,20.4-5.06,29.18-12.35,9.7,7.87,18.39,11.86,29.93,12.35C618.9,260.62,589,268.77,589,268.77Z"/><path class="cls-7" d="M579.12,235.23v-9a8,8,0,0,1,8-8h5a8,8,0,0,1,8,8v9"/><path class="cls-2" d="M572.92,233.42v9.23c0,4.9,3.5,8.91,7.78,8.91H598c4.28,0,7.78-4,7.78-8.91v-9.23C605.78,228.52,572.92,228.52,572.92,233.42Zm17.56,7.78h0v4.32a1.13,1.13,0,1,1-2.27,0v-4.32h0A3.39,3.39,0,1,1,590.48,241.2Z"/><path class="cls-6" d="M1635.25,282.82H1529.9a20.06,20.06,0,0,0-20,20v36.85a20.06,20.06,0,0,1-20,20H1380.29a20.06,20.06,0,0,0-20,20V389a20.06,20.06,0,0,1-20,20H1221.67"/><path class="cls-6" d="M1824.3,345.82H1595.67a20.06,20.06,0,0,0-20,20v56.48a20.06,20.06,0,0,1-20,20h-330"/><text class="cls-8" transform="translate(944.86 1021.56) scale(1.17 1)">$</text><path class="cls-2" d="M543.27,1003.69l-4.47,9.38-78.19.45-2.23-6.25-34-.89-0.89-2.68H346.24S360,1017.07,361,1021.32s2.52,20.35,2.52,20.35c95,12.58,128-24.67,179.77,0q3.8-23,31.72-38H543.27Z"/><polygon class="cls-2" points="423.98 997.21 423.98 996.54 423.98 978 417.72 978 417.72 967.72 411.25 967.72 411.25 959.46 415.71 959.46 415.71 957.23 411.25 957.23 411.25 946.73 408.34 946.73 408.34 957.23 404.54 957.23 404.54 959.46 408.34 959.46 408.34 967.72 399.4 967.72 389.35 978 373.06 978 373.06 996.54 356.96 996.54 356.96 1002.8 420.83 1002.8 423.98 997.21"/><polygon class="cls-2" points="460.61 993.19 472.45 993.19 472.45 1013.43 476.7 1013.43 476.7 993.19 514.23 993.19 514.23 1000.79 504.84 1000.79 504.84 1010.62 526.74 1010.62 526.74 1000.79 515.79 1000.79 515.79 993.19 518.02 993.19 518.02 989.84 476.7 989.84 476.7 983.14 472.45 983.14 472.45 989.84 460.61 989.84 460.61 985.15 451.45 985.15 451.45 997.88 460.61 997.88 460.61 993.19"/><path class="cls-2" d="M543.75,1044.34c-35.62-20.33-59.87-2.34-131.5,1.91C469.13,1057.88,513,1037.33,543.75,1044.34Z"/><circle class="cls-2" cx="573.93" cy="1025.56" r="9.25"/><path class="cls-6" d="M573.93,1025.56H643a10.21,10.21,0,0,0,10.15-10L656.65,784c0.08-5.5,3.4-13.11,7.37-16.92l86-82.38"/><path class="cls-2" d="M1803.69,568.79v-4.14h6v-3.95h-6v-3.76h-6.21v3.76h-6v3.95h6v4.14h-9.4c-5.54,9.87-5,20.25,0,31H1812c6.43-10.93,7-21.35,0-31h-8.28Zm-3.1,26.14a11.57,11.57,0,1,1,11.57-11.57A11.57,11.57,0,0,1,1800.59,594.94Z"/><path class="cls-2" d="M1797.48,583.93a3.1,3.1,0,0,0,6.21,0c0-1.71-3.2-8.91-3.2-8.91S1797.48,582.22,1797.48,583.93Z"/><path class="cls-5" d="M1814.62,583.37h17.79a5,5,0,0,1,5,5v36.46"/><path class="cls-5" d="M1814.62,583.37"/><path class="cls-5" d="M1762.88,624.83V588.37a5,5,0,0,1,5-5h18"/><rect class="cls-2" x="1752.33" y="624.83" width="20.67" height="5"/><rect class="cls-2" x="1827.39" y="624.83" width="20.67" height="5"/><circle class="cls-2" cx="1800.15" cy="615.84" r="9.25"/><path class="cls-6" d="M1800.15,615.84l0.22,19.36c0.12,10.65-8.78,19.36-19.78,19.36h-95.25a20.06,20.06,0,0,1-20-20V588a20.06,20.06,0,0,0-20-20H1238.72"/><line class="cls-4" x1="1759.71" y1="708.43" x2="1760.1" y2="739.67"/><line class="cls-4" x1="1744.78" y1="715" x2="1745.09" y2="739.67"/><line class="cls-4" x1="1714.87" y1="724.05" x2="1715.06" y2="739.67"/><line class="cls-4" x1="1729.63" y1="704" x2="1730.07" y2="739.67"/><rect class="cls-2" x="1724.49" y="1012.56" width="93.12" height="12.5"/><path class="cls-2" d="M1808.17,1000.68v-93.6a8.84,8.84,0,0,0-8.82-8.82h-56.86a8.84,8.84,0,0,0-8.82,8.82v93.6a18.15,18.15,0,0,1-2.55,8.82H1811A17,17,0,0,1,1808.17,1000.68Zm-11.23-58.79a4.09,4.09,0,0,1-4.08,4.08h-42.1a4.09,4.09,0,0,1-4.08-4.08V919.94a4.09,4.09,0,0,1,4.08-4.08h42.1a4.09,4.09,0,0,1,4.08,4.08v21.94Z"/><path class="cls-2" d="M1832.91,935h16.84V902.85C1833.53,903.13,1829.25,915.16,1832.91,935Z"/><polyline class="cls-6" points="1858.88 875.81 1848.17 890.35 1848.17 908.72"/><path class="cls-9" d="M1842.78,932l5.92,9.08a0.2,0.2,0,0,1,0,.09v8.62a0.08,0.08,0,0,1,0,.07l-8,3.35"/><path class="cls-10" d="M1840.72,917.5v61.13a10,10,0,0,1-10,10h-1a10,10,0,0,1-10-10V925c0-5.5-3.71-10-8.25-10h-8.25"/><circle class="cls-2" cx="1715.24" cy="984.95" r="9.25"/><path class="cls-6" d="M1715.24,984.95H1584.58a20.06,20.06,0,0,0-20,20V1021a20.06,20.06,0,0,1-20,20H1143a20.06,20.06,0,0,1-20-20V980.56a20.06,20.06,0,0,0-20-20h-46a20.06,20.06,0,0,1-20-20V772.48"/><circle class="cls-2" cx="832.63" cy="991.88" r="9.25"/><circle class="cls-2" cx="1339.12" cy="494.88" r="9.25"/><circle class="cls-2" cx="1416.6" cy="220.5" r="9.25"/><circle class="cls-2" cx="783.51" cy="199.55" r="9.25"/><circle class="cls-2" cx="220.61" cy="68.53" r="9.25"/><circle class="cls-2" cx="1688.49" cy="90.34" r="9.25"/><path class="cls-6" d="M709,592.06H118.92a20.06,20.06,0,0,1-20-20V496.34a20.06,20.06,0,0,0-20-20H0"/><path class="cls-2" d="M710.67,58c-1,11.68,15.39,15.48,11.11,33.13,2.91,1.4,3.37-2.28,6-3.53,5.37-2.06,5.94,3.55,8.59,4.79-1.65.19-3.6,0.2-4,1.13-5.24,13.52-16.76,16.17-30,15.78A61.92,61.92,0,0,0,685.88,115a20.91,20.91,0,0,0-8.62-2.4c11.59-3.55,21.8-7.65,28.53-13.16C696,96.1,689.08,86.94,684.09,74c9.37,6.39,14.39,5,22.56,9.12A32.73,32.73,0,0,1,710.67,58Z"/><text class="cls-8" transform="translate(1538.36 865.27)">€</text><text class="cls-8" transform="translate(1801.88 371.51)">£</text><path class="cls-2" d="M55.62,1005.81v9.11H182.37v-0.05H263.9V964.65h12.59l-62.81-17.55V935.81H154v70H116.63V970c16.16-12.65,24.44-32.92,24-61.66L65.33,986.08q25.6-1.23,42.8-10.58v30.31H55.62Zm138.29-44H173.76V950.44h20.15v11.33Zm0,19H173.76V969.42h20.15v11.33Z"/><path class="cls-2" d="M57.3,981.8L93.79,944,79.57,929.79a9.72,9.72,0,1,1,4.06-4.06l14.15,14.15,38.83-40.21,4,3.87L61.3,985.67Z"/><path class="cls-2" d="M154,922.38q29.84-32.79,59.69,0v9.09H154v-9.09Z"/><circle class="cls-7" cx="104.02" cy="735" r="1.17"/><circle class="cls-7" cx="113.51" cy="735" r="1.17"/><circle class="cls-7" cx="123" cy="735" r="1.17"/><path class="cls-2" d="M119.25,699.18A46.81,46.81,0,1,0,166.05,746,46.81,46.81,0,0,0,119.25,699.18Zm-8.68,46-0.06,5.1H105l-12.25,9.09,1-9.09a3.17,3.17,0,0,1-3.16-3.16V724.79a3.17,3.17,0,0,1,3.16-3.16h38.47a3.17,3.17,0,0,1,3.16,3.16v15.71H114.81C111.5,740.49,110.51,741.21,110.56,745.17Zm36.94,17.35a2.46,2.46,0,0,1-2.45,2.45l0.81,7-9.49-7H115.24a2.46,2.46,0,0,1-2.45-2.45v-17.3a2.46,2.46,0,0,1,2.45-2.45h29.81a2.46,2.46,0,0,1,2.45,2.45v17.3Z"/><line class="cls-6" x1="119.64" y1="750.37" x2="139.2" y2="750.37"/><line class="cls-6" x1="119.64" y1="757.39" x2="139.2" y2="757.39"/><path class="cls-6" d="M231.13,671"/><path class="cls-6" d="M703,607H344a41.35,41.35,0,0,0-18.49,5.28L272.78,645.1"/><path class="cls-2" d="M231.13,612.21a56.8,56.8,0,1,0,56.8,56.8A56.8,56.8,0,0,0,231.13,612.21Zm-46.34,66.27a16.43,16.43,0,0,1,12.79-16,8.57,8.57,0,1,1,6.87-.1,16.45,16.45,0,0,1,10.71,7.44,22,22,0,0,0-8.89,8.68H184.79Zm20,15.87a26,26,0,0,1,21.1-25.56,13.56,13.56,0,1,1,9.87,0,26,26,0,0,1,21.1,25.56H204.79ZM255,678.68a22,22,0,0,0-8.89-8.68,16.45,16.45,0,0,1,10.71-7.44,8.55,8.55,0,1,1,6.87.1,16.43,16.43,0,0,1,12.79,16H255Z"/><path class="cls-2" d="M1431.18,378c0.74,8.56-11.28,11.35-8.14,24.29-2.13,1-2.47-1.67-4.4-2.58-3.94-1.51-4.36,2.6-6.3,3.51,1.21,0.14,2.64.15,2.9,0.83,3.84,9.91,12.29,11.85,22,11.57a45.39,45.39,0,0,1,12.09,4.21,15.33,15.33,0,0,1,6.32-1.76c-8.49-2.6-16-5.61-20.91-9.65,7.21-2.45,12.25-9.17,15.91-18.62-6.87,4.68-10.55,3.7-16.54,6.69A24,24,0,0,0,1431.18,378Z"/><path class="cls-2" d="M447.94,386a14.69,14.69,0,0,1,1.63-6.73h-0.09V374.4h4.06a14.64,14.64,0,0,1,11.89-2.95v-5.38a2.81,2.81,0,0,0-2.8-2.8H426.57a2.81,2.81,0,0,0-2.8,2.8v21.35a2.81,2.81,0,0,0,2.8,2.8h22A14.76,14.76,0,0,1,447.94,386Zm8.91-19.62h4.84v4.84h-4.84v-4.84Zm-7.37-.09h4.84v4.84h-4.84v-4.84Zm-17,21h-4.84v-4.84h4.84v4.84Zm0-8.05h-4.84v-4.84h4.84v4.84Zm0-8.14h-4.84v-4.84h4.84V371Zm7.35,16.23H435v-4.84h4.84v4.84Zm0-8.05H435v-4.84h4.84v4.84Zm0-8.14H435v-4.84h4.84v4.84Zm7.33,16.2h-4.84v-4.84h4.84v4.84Zm0-8.05h-4.84v-4.84h4.84v4.84Zm0-8.14h-4.84v-4.84h4.84v4.84Z"/><path class="cls-2" d="M449.24,331.63a42,42,0,1,0,42,42A42,42,0,0,0,449.24,331.63Zm13.48,69.12a14.77,14.77,0,0,1-13.1-8h-24.9a3,3,0,0,1-3-3V358.24a3,3,0,0,1,3-3h4.08v-4.67a1.4,1.4,0,0,1,1.4-1.4h3a1.4,1.4,0,0,1,1.4,1.4v4.67h20.8v-4.67a1.4,1.4,0,0,1,1.4-1.4h3a1.4,1.4,0,0,1,1.4,1.4v4.67h3.49a3,3,0,0,1,3,3V372.1A14.77,14.77,0,0,1,462.72,400.75Z"/><circle class="cls-9" cx="462.72" cy="385.97" r="14.78"/><rect class="cls-2" x="461.31" y="375.51" width="3.02" height="12.28" rx="1.51" ry="1.51"/><rect class="cls-2" x="463.78" y="382.29" width="3.02" height="7.98" rx="1.51" ry="1.51" transform="translate(79.01 851.58) rotate(-90)"/><circle class="cls-2" cx="784.77" cy="865.48" r="6.27"/><path class="cls-2" d="M780.86,846.06a43.52,43.52,0,1,0,43.52,43.52A43.52,43.52,0,0,0,780.86,846.06Zm3.93,9.07a10.53,10.53,0,0,1,10.53,10.53c0,5.82-10.53,24.83-10.53,24.83s-10.53-19-10.53-24.83A10.53,10.53,0,0,1,784.8,855.13Zm-2,72.54c-14.51-11-31.43-26.49-38.91-24.53l18.2-27.2c1.57,4.43,13.18,12.1,22.71,19.1l26.35-16.29c-1.37,5.42,2.16,19.33,6,29.82C810.44,907.76,796,918.59,782.77,927.67Z"/><line class="cls-11" x1="784.77" y1="893" x2="782.67" y2="928.5"/><line class="cls-12" x1="784.77" y1="895.04" x2="782.77" y2="927.67"/><circle class="cls-2" cx="756.48" cy="896.31" r="2.15"/><circle class="cls-2" cx="786.93" cy="899.51" r="3.49"/><circle class="cls-2" cx="799.53" cy="908.57" r="2.11"/><circle class="cls-2" cx="801.95" cy="899.67" r="2.53"/><circle class="cls-2" cx="768.86" cy="913.06" r="2.81"/><circle class="cls-2" cx="775.85" cy="903.14" r="2.32"/><circle class="cls-2" cx="787.02" cy="918.63" r="2.24"/><polyline class="cls-13" points="810.09 891.67 800.88 900.6 799.88 907.92 786.8 899.29 775.71 903 756.79 897 756.79 882.17"/><polyline class="cls-13" points="769.21 913.42 775.71 903 788.23 919.42"/><line class="cls-13" x1="798.96" y1="908.31" x2="804.48" y2="915.88"/><circle class="cls-2" cx="807.79" cy="901" r="1.46"/><circle class="cls-2" cx="874.23" cy="913.06" r="6.27"/><rect class="cls-2" x="475.5" y="682.7" width="3.5" height="30.79"/><polygon class="cls-2" points="523.67 900.08 431.67 900.08 431.67 829.72 438.5 822.11 516.5 822.11 523.67 828.97 523.67 900.08"/><rect class="cls-2" x="447.5" y="753.47" width="60" height="65.5"/><rect class="cls-2" x="452.75" y="740.72" width="48.5" height="9.75"/><rect class="cls-2" x="466.25" y="715.97" width="22.12" height="22.13"/><rect class="cls-2" x="353" y="899.51" width="274" height="5.95"/><polygon class="cls-2" points="589.67 900.08 529.67 900.08 529.67 791.33 576.67 791.33 589.67 803 589.67 900.08"/><rect class="cls-2" x="564.67" y="846.06" width="53" height="55.77"/><polygon class="cls-2" points="582.33 828.33 632.67 846.71 558 846.71 582.33 828.33"/><rect class="cls-2" x="529.67" y="774" width="39" height="14.33"/><rect class="cls-2" x="539.33" y="766.33" width="18.67" height="4.33"/><rect class="cls-2" x="376" y="846.71" width="49.98" height="54.29"/><rect class="cls-2" x="368.33" y="842.67" width="57.65" height="4.04"/><rect class="cls-1" x="539.49" y="801" width="6.1" height="6.1"/><rect class="cls-1" x="539.49" y="810.01" width="6.1" height="6.1"/><rect class="cls-1" x="539.49" y="819.01" width="6.1" height="6.1"/><rect class="cls-1" x="539.49" y="828.02" width="6.1" height="6.1"/><rect class="cls-1" x="549.5" y="801" width="6.1" height="6.1"/><rect class="cls-1" x="549.5" y="810.01" width="6.1" height="6.1"/><rect class="cls-1" x="549.5" y="819.01" width="6.1" height="6.1"/><rect class="cls-1" x="549.5" y="828.02" width="6.1" height="6.1"/><rect class="cls-1" x="559.54" y="801" width="6.1" height="6.1"/><rect class="cls-1" x="559.54" y="810.01" width="6.1" height="6.1"/><rect class="cls-1" x="559.54" y="819.01" width="6.1" height="6.1"/><rect class="cls-1" x="559.54" y="828.02" width="6.1" height="6.1"/><rect class="cls-1" x="569.55" y="801" width="6.1" height="6.1"/><rect class="cls-1" x="569.55" y="810.01" width="6.1" height="6.1"/><rect class="cls-1" x="569.55" y="819.01" width="6.1" height="6.1"/><rect class="cls-1" x="569.55" y="828.02" width="6.1" height="6.1"/><rect class="cls-1" x="454.75" y="760.21" width="6.1" height="6.1"/><rect class="cls-1" x="454.75" y="769.22" width="6.1" height="6.1"/><rect class="cls-1" x="454.75" y="778.23" width="6.1" height="6.1"/><rect class="cls-1" x="454.75" y="787.24" width="6.1" height="6.1"/><rect class="cls-1" x="464.76" y="760.21" width="6.1" height="6.1"/><rect class="cls-1" x="464.76" y="769.22" width="6.1" height="6.1"/><rect class="cls-1" x="464.76" y="778.23" width="6.1" height="6.1"/><rect class="cls-1" x="464.76" y="787.24" width="6.1" height="6.1"/><rect class="cls-1" x="474.8" y="760.21" width="6.1" height="6.1"/><rect class="cls-1" x="474.8" y="769.22" width="6.1" height="6.1"/><rect class="cls-1" x="474.8" y="778.23" width="6.1" height="6.1"/><rect class="cls-1" x="474.8" y="787.24" width="6.1" height="6.1"/><rect class="cls-1" x="484.81" y="760.21" width="6.1" height="6.1"/><rect class="cls-1" x="484.81" y="769.22" width="6.1" height="6.1"/><rect class="cls-1" x="484.81" y="778.23" width="6.1" height="6.1"/><rect class="cls-1" x="484.81" y="787.24" width="6.1" height="6.1"/><rect class="cls-1" x="454.75" y="796.73" width="6.1" height="6.1"/><rect class="cls-1" x="454.75" y="805.74" width="6.1" height="6.1"/><rect class="cls-1" x="464.76" y="796.73" width="6.1" height="6.1"/><rect class="cls-1" x="464.76" y="805.74" width="6.1" height="6.1"/><rect class="cls-1" x="474.8" y="796.73" width="6.1" height="6.1"/><rect class="cls-1" x="474.8" y="805.74" width="6.1" height="6.1"/><rect class="cls-1" x="484.81" y="796.73" width="6.1" height="6.1"/><rect class="cls-1" x="484.81" y="805.74" width="6.1" height="6.1"/><rect class="cls-1" x="444.45" y="833.49" width="6.1" height="66.02"/><rect class="cls-1" x="454.75" y="833.49" width="6.1" height="66.02"/><circle class="cls-1" cx="492.25" cy="852.49" r="19.25"/><line class="cls-14" x1="492.25" y1="833.46" x2="492.25" y2="871.74"/><line class="cls-14" x1="511.39" y1="852.6" x2="473.11" y2="852.6"/><rect class="cls-1" x="392.08" y="851.57" width="6.1" height="6.1"/><rect class="cls-1" x="402.09" y="851.57" width="6.1" height="6.1"/><rect class="cls-1" x="412.14" y="851.57" width="6.1" height="6.1"/><rect class="cls-1" x="392.08" y="861.07" width="6.1" height="6.1"/><rect class="cls-1" x="392.08" y="870.07" width="6.1" height="6.1"/><rect class="cls-1" x="402.09" y="861.07" width="6.1" height="6.1"/><rect class="cls-1" x="402.09" y="870.07" width="6.1" height="6.1"/><rect class="cls-1" x="412.14" y="861.07" width="6.1" height="6.1"/><rect class="cls-1" x="412.14" y="870.07" width="6.1" height="6.1"/><rect class="cls-2" x="372" y="855.71" width="5.25" height="10.76"/><rect class="cls-2" x="372" y="876.17" width="5.25" height="10.76"/><rect class="cls-1" x="382.39" y="886.93" width="6.1" height="12.58"/><rect class="cls-1" x="471.97" y="893.22" width="40.56" height="6.44"/><polygon class="cls-1" points="519.83 892.16 464.58 892.16 471.97 890.55 512.53 890.55 519.83 892.16"/><rect class="cls-2" x="588.54" y="810.73" width="5.25" height="10.76"/><rect class="cls-2" x="506.5" y="759.91" width="5.25" height="10.76"/><rect class="cls-2" x="506.5" y="781.86" width="5.25" height="10.76"/><polygon class="cls-2" points="609 878 623.33 886.93 609 886.93 609 878"/><rect class="cls-1" x="605" y="887.08" width="6.1" height="12.58"/><rect class="cls-1" x="571.21" y="851.5" width="6.1" height="30.22"/><rect class="cls-1" x="560.34" y="851.5" width="6.1" height="30.22"/><rect class="cls-1" x="549.15" y="851.5" width="6.1" height="30.22"/><rect class="cls-1" x="538.39" y="851.29" width="6.1" height="30.22"/><rect class="cls-1" x="605" y="851.66" width="6.1" height="6.1"/><rect class="cls-1" x="605" y="860.66" width="6.1" height="6.1"/><rect class="cls-1" x="582.59" y="851.5" width="6.1" height="30.22"/><rect class="cls-2" x="526.11" y="802.72" width="5.25" height="10.76"/><rect class="cls-2" x="414.59" y="836.42" width="7.57" height="4.73"/><rect class="cls-2" x="402.85" y="836.42" width="7.57" height="4.73"/><rect class="cls-15" width="1920" height="1080"/><circle class="cls-2" cx="960" cy="512" r="303.2"/><text class="cls-16" transform="translate(743.86 398.51)"><tspan class="cls-17">V</tspan><tspan x="40.11" y="0">ision2</tspan><tspan x="223.7" y="0">R</tspan><tspan x="263.81" y="0">eali</tspan><tspan x="371.33" y="0">t</tspan><tspan x="396.49" y="0">y</tspan></text><text class="cls-18" transform="translate(770.53 485.5)"><tspan x="14.76" y="0">Please Enter The Company Name</tspan><tspan x="373.29" y="0">.</tspan></text></svg>