<svg style="width: 36px; height: 36px; display: block; position: relative; overflow: hidden; cursor: move; left: 2px; top: 2px;" xmlns="http://www.w3.org/2000/svg" viewBox="0 0 52.28 43.49"><g><g></g><g><g transform="translate(0.5,0.5)" style="visibility: visible;"><path d="M 21 11 L 25 11 L 25 15 L 27 15 L 27 12 L 33 18 L 27 24 L 27 21 L 25 21 L 25 25 L 21 25 L 21 27 L 24 27 L 18 33 L 12 27 L 15 27 L 15 25 L 11 25 L 11 21 L 9 21 L 9 24 L 2 18 L 9 12 L 9 15 L 11 15 L 11 11 L 15 11 L 15 9 L 12 9 L 18 2 L 24 9 L 21 9 Z" fill="#ffffff" stroke="#000000" stroke-miterlimit="10" pointer-events="all"></path></g></g><g></g><g></g></g></svg>