<svg id="Document_Preview_Buttons" data-name="Document Preview Buttons" xmlns="http://www.w3.org/2000/svg" viewBox="0 0 29.17 30.88"><defs><style>.cls-1,.cls-2{fill:#fff;}.cls-1{opacity:0.8;}.cls-2,.cls-3{stroke:#19324f;stroke-miterlimit:10;}.cls-2{stroke-width:1.42px;}.cls-3{fill:none;stroke-width:0.85px;}</style></defs><title>Copy_File_icon</title><path class="cls-1" d="M429.71,309.77H418.26a3.92,3.92,0,0,1-3.92-3.92V290.07a3.92,3.92,0,0,1,3.92-3.92h11.45l3.92,3.92v15.77A3.92,3.92,0,0,1,429.71,309.77Z" transform="translate(-414.34 -286.15)"/><path class="cls-2" d="M438.87,316.32H427.43a3.92,3.92,0,0,1-3.92-3.92V296.62a3.92,3.92,0,0,1,3.92-3.92h11.45l3.92,3.92v15.77A3.92,3.92,0,0,1,438.87,316.32Z" transform="translate(-414.34 -286.15)"/><line class="cls-3" x1="13.74" y1="13.45" x2="23.49" y2="13.45"/><line class="cls-3" x1="13.74" y1="16.8" x2="23.49" y2="16.8"/><line class="cls-3" x1="13.74" y1="20.15" x2="23.49" y2="20.15"/><line class="cls-3" x1="13.74" y1="23.5" x2="23.49" y2="23.5"/></svg>