<svg id="Assets_Object_Management_Panel_Icons" data-name="Assets Object Management Panel Icons" xmlns="http://www.w3.org/2000/svg" viewBox="0 0 18.27 19.13"><defs><style>.cls-1,.cls-2{fill:#fff;}.cls-2{stroke:#23437c;stroke-miterlimit:10;}</style></defs><title>Documents_icon</title><path class="cls-1" d="M259.68,300h-7.57a2.6,2.6,0,0,1-2.6-2.6V287a2.6,2.6,0,0,1,2.6-2.6h7.57l2.6,2.6v10.43A2.6,2.6,0,0,1,259.68,300Z" transform="translate(-249.52 -284.36)"/><line class="cls-2" x1="3.02" y1="4.57" x2="9.48" y2="4.57"/><line class="cls-2" x1="3.02" y1="7.89" x2="9.48" y2="7.89"/><line class="cls-2" x1="3.02" y1="11.21" x2="9.48" y2="11.21"/><path class="cls-2" d="M264.69,303h-7.57a2.6,2.6,0,0,1-2.6-2.6V290a2.6,2.6,0,0,1,2.6-2.6h7.57l2.6,2.6v10.43A2.6,2.6,0,0,1,264.69,303Z" transform="translate(-249.52 -284.36)"/><line class="cls-2" x1="8.03" y1="7.57" x2="14.48" y2="7.57"/><line class="cls-2" x1="8.03" y1="10.89" x2="14.48" y2="10.89"/><line class="cls-2" x1="8.03" y1="14.22" x2="14.48" y2="14.22"/></svg>