<svg id="Document_Preview_Buttons" data-name="Document Preview Buttons" xmlns="http://www.w3.org/2000/svg" viewBox="0 0 24.66 30.19"><defs><style>.cls-1{fill:#fff;}.cls-2{fill:#19324f;}.cls-3{fill:none;stroke:#19324f;stroke-miterlimit:10;stroke-width:1.7px;}</style></defs><title>Document_Settings_icon</title><path class="cls-1" d="M289.93,316.34H275.3a5,5,0,0,1-5-5V291.17a5,5,0,0,1,5-5h14.63l5,5v20.16A5,5,0,0,1,289.93,316.34Z" transform="translate(-270.29 -286.15)"/><path class="cls-2" d="M288.65,306.65a2.69,2.69,0,0,1,2.28-2.24,8.4,8.4,0,0,0-1.27-3.32,2.69,2.69,0,0,1-4-3.25,8.46,8.46,0,0,0-3.57-.56,2.69,2.69,0,0,1-4.79,1.86,8.41,8.41,0,0,0-2.22,2.76,2.69,2.69,0,0,1-.79,5.08,8.4,8.4,0,0,0,1.29,3.32A2.69,2.69,0,0,1,279.7,313a2.72,2.72,0,0,1-.14.54,8.47,8.47,0,0,0,3.54.56,2.69,2.69,0,0,1,4.77-1.83,8.41,8.41,0,0,0,2.25-2.77A2.69,2.69,0,0,1,288.65,306.65Zm-6.77,3.68a4.7,4.7,0,1,1,5.38-3.91A4.7,4.7,0,0,1,281.88,310.33Z" transform="translate(-270.29 -286.15)"/><circle class="cls-3" cx="12.33" cy="19.53" r="3.86"/></svg>