<svg id="Assets_Object_Management_Panel_Icons" data-name="Assets Object Management Panel Icons" xmlns="http://www.w3.org/2000/svg" viewBox="0 0 19.8 20.67"><defs><style>.cls-1{fill:#fff;}.cls-2{fill:none;stroke:#fff;stroke-miterlimit:10;stroke-width:1.13px;}</style></defs><title>Drawings_icon</title><path class="cls-1" d="M262.75,189.11a5.45,5.45,0,0,1-2.36,4.67,14,14,0,0,1-.09,1.53h-3.74s-0.09-.87-0.09-1.54a5.46,5.46,0,0,1-2.32-4.65c0-2.89,1.93-5.24,4.3-5.24S262.75,186.22,262.75,189.11Z" transform="translate(-248.61 -177.99)"/><path class="cls-1" d="M256.69,196.55h3.52s0,2.11-1.77,2.11S256.69,196.55,256.69,196.55Z" transform="translate(-248.61 -177.99)"/><polygon class="cls-2" points="9.81 1.92 9.35 3.49 10.32 3.49 9.81 1.92"/><polygon class="cls-2" points="15.78 5.22 14.26 5.81 14.85 6.57 15.78 5.22"/><polygon class="cls-2" points="3.75 5.22 5.28 5.81 4.68 6.57 3.75 5.22"/><polygon class="cls-2" points="1.92 10.64 3.5 10.23 3.47 11.2 1.92 10.64"/><polygon class="cls-2" points="17.88 10.64 16.3 10.23 16.33 11.2 17.88 10.64"/></svg>