<svg id="Document_Preview_Buttons" data-name="Document Preview Buttons" xmlns="http://www.w3.org/2000/svg" viewBox="0 0 45.66 33.37"><defs><style>.cls-1,.cls-2{fill:#fff;}.cls-2{font-size:25.32px;font-family:Myriad Pro;font-weight:700;}</style></defs><title>Edit_In_Microsoft_Office_icon</title><path class="cls-1" d="M180.24,295.23a96.14,96.14,0,0,0-10.94,17.21,11.83,11.83,0,0,0-6.29-4,89.56,89.56,0,0,0,10.93-17.18A10.93,10.93,0,0,1,180.24,295.23Z" transform="translate(-137.43 -282.73)"/><path class="cls-1" d="M183.1,290.72l-2,3.23a13.16,13.16,0,0,0-6.3-4l2-3.23A12.3,12.3,0,0,1,183.1,290.72Z" transform="translate(-137.43 -282.73)"/><path class="cls-1" d="M165.78,311.14c1.89,1.2,2.9,2.45,2.25,2.8l-3.6,1.89c-1.33.7-2.36,0-2.3-1.46l0.16-4.06C162.32,309.57,163.89,309.94,165.78,311.14Z" transform="translate(-137.43 -282.73)"/><text class="cls-2" transform="translate(0 21.19)">MO</text></svg>