<svg id="Document_Preview_Buttons" data-name="Document Preview Buttons" xmlns="http://www.w3.org/2000/svg" viewBox="0 0 41.6 33.63"><defs><style>.cls-1,.cls-2{fill:#fff;}.cls-2{font-size:25.46px;font-family:Myriad Pro;font-weight:700;}</style></defs><title>Edit_In_Goole_Documents_icon</title><path class="cls-1" d="M112.22,294.88a96.67,96.67,0,0,0-11,17.3,11.9,11.9,0,0,0-6.33-4,90.06,90.06,0,0,0,11-17.27A11,11,0,0,1,112.22,294.88Z" transform="translate(-73.49 -282.24)"/><path class="cls-1" d="M115.09,290.35L113,293.59a13.24,13.24,0,0,0-6.34-4l2.05-3.24A12.37,12.37,0,0,1,115.09,290.35Z" transform="translate(-73.49 -282.24)"/><path class="cls-1" d="M97.68,310.88c1.9,1.2,2.92,2.47,2.26,2.81l-3.62,1.9c-1.33.7-2.38,0-2.32-1.46L94.16,310C94.19,309.3,95.77,309.67,97.68,310.88Z" transform="translate(-73.49 -282.24)"/><text class="cls-2" transform="translate(0 21.31)">GD</text></svg>