<svg id="Document_Preview_Buttons" data-name="Document Preview Buttons" xmlns="http://www.w3.org/2000/svg" viewBox="0 0 42.96 28.1"><defs><style>.cls-1{fill:#fff;}.cls-2,.cls-3,.cls-4{fill:none;stroke-miterlimit:10;}.cls-2,.cls-3{stroke:#fff;}.cls-2{stroke-width:1.42px;}.cls-3{stroke-width:1.7px;}.cls-4{stroke:#19324f;stroke-width:0.85px;}</style></defs><title>Edit_OffLine_icon</title><path class="cls-1" d="M243.11,295.4a92,92,0,0,0-10.47,16.46,11.32,11.32,0,0,0-6-3.84,85.69,85.69,0,0,0,10.46-16.43A10.45,10.45,0,0,1,243.11,295.4Z" transform="translate(-202.88 -287.28)"/><path class="cls-1" d="M245.84,291.09l-2,3.09a12.59,12.59,0,0,0-6-3.81l2-3.09A11.77,11.77,0,0,1,245.84,291.09Z" transform="translate(-202.88 -287.28)"/><path class="cls-1" d="M229.27,310.62c1.81,1.14,2.78,2.35,2.15,2.68L228,315.11a1.38,1.38,0,0,1-2.2-1.39l0.16-3.89C226,309.12,227.46,309.48,229.27,310.62Z" transform="translate(-202.88 -287.28)"/><path class="cls-2" d="M209.07,303a8.73,8.73,0,0,1,12.94.39" transform="translate(-202.88 -287.28)"/><path class="cls-2" d="M206.1,300.34a12.73,12.73,0,0,1,19,.48" transform="translate(-202.88 -287.28)"/><path class="cls-2" d="M203.39,297.56a16.6,16.6,0,0,1,24.61.74" transform="translate(-202.88 -287.28)"/><path class="cls-1" d="M215.36,309.06l4.71-4a6.15,6.15,0,0,0-9.18-.29Z" transform="translate(-202.88 -287.28)"/><line class="cls-3" x1="19.97" y1="0.87" x2="5.73" y2="21.03"/><line class="cls-4" x1="20.96" y1="1.57" x2="6.72" y2="21.73"/></svg>