<svg id="Move_Around" data-name="Move Around" xmlns="http://www.w3.org/2000/svg" viewBox="95 145 200.76 200.84"><defs><style>.cls-1,.cls-4{fill:none;stroke-miterlimit:10;stroke-width:1.7px;}.cls-1{stroke:#fff;}.cls-2{fill:#fff;}.cls-3{fill:#779cc9;}.cls-4{stroke:#779cc9;}</style></defs><title>History_icon</title><line class="cls-1" x1="128.29" y1="4.21" x2="128.29" y2="18.29"/><polygon class="cls-2" points="131.71 17.01 128.29 22.94 124.87 17.01 131.71 17.01"/><polygon class="cls-2" points="131.71 5.93 128.29 0 124.87 5.93 131.71 5.93"/><line class="cls-1" x1="135.55" y1="11.47" x2="121.47" y2="11.47"/><polygon class="cls-2" points="122.75 14.89 116.82 11.47 122.75 8.05 122.75 14.89"/><polygon class="cls-2" points="133.83 14.89 139.76 11.47 133.83 8.05 133.83 14.89"/><polygon class="cls-3" points="3.83 162.2 0 158.35 7.66 158.35 3.83 162.2"/><polyline class="cls-4" points="11.23 154.53 11.23 158.91 14.93 161.14"/><path class="cls-4" d="M133.56,398q0-.27,0-0.54a7.64,7.64,0,1,1,2.31,5.47" transform="translate(-129.71 -239.11)"/></svg>