<svg id="Assets_Object_Management_Panel_Icons" data-name="Assets Object Management Panel Icons" xmlns="http://www.w3.org/2000/svg" viewBox="0 0 19.05 16.29"><defs><style>.cls-1{fill:#fff;}.cls-2{fill:none;stroke:#fff;stroke-miterlimit:10;stroke-width:0.85px;}</style></defs><title>Maintenance_icon</title><path class="cls-1" d="M256.42,436.14a4.36,4.36,0,0,0-7.81,3.22l1.89-1.42a2.12,2.12,0,1,1,2.56,3.39l-1.89,1.42A4.36,4.36,0,0,0,256.42,436.14Z" transform="translate(-248.57 -426.85)"/><path class="cls-1" d="M267.28,428.29a1.73,1.73,0,0,0-2.4-.38l-10.7,7.49A2,2,0,0,0,254,438a2,2,0,0,0,2.58.62l10.37-7.94A1.73,1.73,0,0,0,267.28,428.29ZM265,430a1,1,0,1,1,1.35.21A1,1,0,0,1,265,430Z" transform="translate(-248.57 -426.85)"/><rect class="cls-1" x="261.15" y="432.64" width="3.06" height="10.19" rx="1.53" ry="1.53" transform="translate(494.08 184.77) rotate(140.88)"/><line class="cls-2" x1="14.11" y1="10.88" x2="6.76" y2="1.84"/><polygon class="cls-1" points="7.09 1.57 6.94 0.86 5.82 0 5.16 0.54 5.76 1.79 6.43 2.11 7.09 1.57"/></svg>