<svg id="Assets_Object_Management_Panel_Icons" data-name="Assets Object Management Panel Icons" xmlns="http://www.w3.org/2000/svg" viewBox="0 0 15.63 19.33"><defs><style>.cls-1{fill:#fff;}.cls-2{fill:#23437c;}.cls-3{fill:none;stroke:#23437c;stroke-miterlimit:10;}</style></defs><title>Operation_Intelligence_icon</title><path class="cls-1" d="M253.34,230.75c1.53-5.32-2.78-5.83-2.17-11.84,0.68-3.18,2.89-4.78,6.26-5.18a6.64,6.64,0,0,1,5.11,1.6c1.81,2,2.61,3.7,1.78,4.79l2.37,2.81q0.16,0.55-.32.64c-0.55.15-.88,0.41-0.7,0.89a1.35,1.35,0,0,1,.38.7,1.32,1.32,0,0,1-.7.45,0.71,0.71,0,0,1,.51.26c0.11,0.22-.61.64-0.89,1.21a3.15,3.15,0,0,1,.38,1.41,1,1,0,0,1-1,.8c-3-.29-3.27.67-3.51,3.74Z" transform="translate(-251.11 -213.71)"/><path class="cls-2" d="M254.69,218.83a1.48,1.48,0,0,1-1.53.87,4.63,4.63,0,0,0,.21,1.95,1.48,1.48,0,0,1,1.67,2.29,4.66,4.66,0,0,0,1.82.8,1.48,1.48,0,0,1,2.81-.32,4.63,4.63,0,0,0,1.57-1.16,1.48,1.48,0,0,1,1.14-2.59,4.63,4.63,0,0,0-.22-2,1.48,1.48,0,0,1-1.81-2,1.5,1.5,0,0,1,.15-0.27,4.67,4.67,0,0,0-1.8-.8,1.48,1.48,0,0,1-2.8.3,4.63,4.63,0,0,0-1.59,1.16A1.48,1.48,0,0,1,254.69,218.83Zm4.12-1a2.59,2.59,0,1,1-3.42,1.32A2.59,2.59,0,0,1,258.81,217.83Z" transform="translate(-251.11 -213.71)"/><circle class="cls-3" cx="6.72" cy="6.54" r="2.22"/></svg>