<?xml version="1.0" standalone="no"?>
<!DOCTYPE svg PUBLIC "-//W3C//DTD SVG 20010904//EN"
 "http://www.w3.org/TR/2001/REC-SVG-20010904/DTD/svg10.dtd">
<svg version="1.0" xmlns="http://www.w3.org/2000/svg"
 width="225.000000pt" height="225.000000pt" viewBox="0 0 225.000000 225.000000"
 preserveAspectRatio="xMidYMid meet">
<metadata>
Created by potrace 1.14, written by Peter Selinger 2001-2017
</metadata>
<g transform="translate(0.000000,225.000000) scale(0.100000,-0.100000)"
fill="#000000" stroke="none">
<path d="M920 2098 c-86 -12 -230 -61 -307 -104 -198 -110 -350 -293 -422
-510 -132 -395 15 -820 365 -1050 272 -179 614 -200 899 -56 103 51 171 101
251 184 80 82 116 132 167 233 245 488 -7 1090 -529 1264 -143 48 -278 60
-424 39z m260 -139 c159 -25 303 -100 421 -218 254 -254 300 -644 113 -954
-49 -79 -171 -202 -250 -250 -312 -189 -700 -143 -955 112 -351 352 -289 929
130 1200 155 100 354 141 541 110z"/>
</g>
</svg>
