<svg id="Hand" xmlns="http://www.w3.org/2000/svg" viewBox="0 0 21.57 27.8"><defs><style>.cls-1{fill:#fff;}</style></defs><title>Edit Panel Tools Section_Hand_icon</title><path class="cls-1" d="M267.48,242.24a1.36,1.36,0,0,0-1.36-1.35H266a1.36,1.36,0,0,0-1.36,1.35v6.1a0.59,0.59,0,0,1-.82.24V239.9a1.58,1.58,0,0,0-1.59-1.57h0a1.58,1.58,0,0,0-1.59,1.57v8.54a0.58,0.58,0,0,1-.9,0h0V238a1.5,1.5,0,0,0-3,0v10.49a0.54,0.54,0,0,1-.86,0v-8.82a1.55,1.55,0,0,0-1.56-1.54h0a1.55,1.55,0,0,0-1.56,1.54V254c-0.31.3-.47,0.24-0.85,0L248,251.46a1.41,1.41,0,0,0-2,1.8,80.25,80.25,0,0,0,6.15,8c5.72,5.13,15,3.52,15.32-3.66v0a1.33,1.33,0,0,0,0-.18V242.24Z" transform="translate(-245.9 -236.48)"/></svg>