<svg id="Edit" xmlns="http://www.w3.org/2000/svg" viewBox="0 0 27.5 22.07"><defs><style>.cls-1{fill:#fff;}</style></defs><title>Edit Panel Tools Section_Edit_icon</title><path class="cls-1" d="M266.75,248.42l-16.2,12a17.13,17.13,0,0,0-4.32-5.82l16.2-12A10.62,10.62,0,0,1,266.75,248.42Z" transform="translate(-243.41 -239.51)"/><path class="cls-1" d="M270.91,245.33l-3,2.21a12.79,12.79,0,0,0-4.32-5.82l3-2.21A12,12,0,0,1,270.91,245.33Z" transform="translate(-243.41 -239.51)"/><path class="cls-1" d="M248.06,257.78c1.3,1.75,1.77,3.24,1.06,3.32l-3.93.45a1.4,1.4,0,0,1-1.58-2.13l1.57-3.63C245.47,255.15,246.76,256,248.06,257.78Z" transform="translate(-243.41 -239.51)"/></svg>