<?xml version="1.0" standalone="no"?>
<!DOCTYPE svg PUBLIC "-//W3C//DTD SVG 20010904//EN"
 "http://www.w3.org/TR/2001/REC-SVG-20010904/DTD/svg10.dtd">
<svg version="1.0" xmlns="http://www.w3.org/2000/svg"
 width="225.000000pt" height="225.000000pt" viewBox="0 0 225.000000 225.000000"
 preserveAspectRatio="xMidYMid meet">
<metadata>
Created by potrace 1.15, written by Peter Selinger 2001-2017
</metadata>
<g transform="translate(0.000000,225.000000) scale(0.100000,-0.100000)"
fill="#000000" stroke="none">
<path d="M955 2184 c-33 -8 -103 -35 -155 -60 -79 -39 -108 -61 -181 -133 -73
-73 -94 -102 -132 -181 -59 -121 -77 -198 -77 -333 0 -193 55 -394 176 -647
111 -231 282 -497 452 -704 86 -105 90 -104 198 32 47 59 132 177 188 262 157
237 230 372 309 570 71 178 97 292 104 450 6 165 -7 233 -74 370 -38 79 -59
108 -132 181 -73 73 -102 94 -181 132 -52 26 -124 53 -160 61 -81 20 -255 19
-335 0z m291 -502 c49 -25 107 -88 130 -139 22 -50 22 -156 0 -206 -22 -51
-81 -114 -130 -140 -58 -31 -184 -31 -242 0 -49 26 -108 89 -130 140 -22 50
-22 156 0 206 31 71 101 134 176 158 43 14 152 4 196 -19z"/>
</g>
</svg>
