<?xml version="1.0" standalone="no"?>
<!DOCTYPE svg PUBLIC "-//W3C//DTD SVG 20010904//EN"
 "http://www.w3.org/TR/2001/REC-SVG-20010904/DTD/svg10.dtd">
<svg version="1.0" xmlns="http://www.w3.org/2000/svg"
 width="225.000000pt" height="225.000000pt" viewBox="0 0 225.000000 225.000000"
 preserveAspectRatio="xMidYMid meet">
<metadata>
Created by potrace 1.15, written by Peter Selinger 2001-2017
</metadata>
<g transform="translate(0.000000,225.000000) scale(0.100000,-0.100000)"
fill="#000000" stroke="none">
<path d="M764 2231 c-85 -39 -126 -144 -94 -241 l13 -39 -184 -275 -184 -276
-48 0 c-58 0 -98 -19 -131 -63 -61 -80 -56 -180 15 -250 46 -46 46 -53 25
-252 -8 -71 -17 -168 -20 -215 -13 -185 -25 -260 -41 -260 -24 0 -77 -53 -96
-95 -70 -153 78 -311 236 -251 41 16 105 74 105 96 0 6 162 10 434 10 l433 0
26 -39 c68 -103 227 -106 303 -6 22 30 29 50 32 100 2 36 -1 71 -7 84 -11 19
5 43 162 244 95 122 194 250 221 285 l47 62 57 0 c67 0 106 20 148 76 25 33
29 46 29 104 0 54 -5 73 -24 102 -35 50 -82 79 -142 87 l-52 6 -139 221 -138
221 16 39 c35 83 3 182 -74 235 -52 36 -143 34 -200 -3 l-41 -27 -207 77 -207
78 -12 41 c-18 59 -49 98 -98 122 -53 26 -109 26 -163 2z m295 -325 c36 -14
129 -49 205 -78 l139 -53 12 -40 c6 -22 19 -52 28 -66 23 -35 86 -68 138 -73
l44 -3 142 -226 142 -226 -16 -31 c-18 -37 -20 -118 -4 -148 12 -22 -28 -78
-284 -402 -28 -36 -73 -92 -99 -126 -47 -61 -47 -61 -99 -61 -64 0 -104 -20
-149 -73 l-35 -40 -431 0 -430 0 -21 33 c-11 17 -29 38 -40 45 -26 15 -27 45
-6 243 14 141 16 170 31 353 5 63 12 93 23 102 9 7 31 25 50 40 37 31 70 94
71 136 0 15 -7 47 -15 72 l-15 44 182 276 c152 229 186 275 203 271 30 -6 95
11 124 34 33 25 31 25 110 -3z"/>
</g>
</svg>
