<?xml version="1.0" standalone="no"?>
<!DOCTYPE svg PUBLIC "-//W3C//DTD SVG 20010904//EN"
 "http://www.w3.org/TR/2001/REC-SVG-20010904/DTD/svg10.dtd">
<svg version="1.0" xmlns="http://www.w3.org/2000/svg"
 width="512.000000pt" height="512.000000pt" viewBox="0 0 512.000000 512.000000"
 preserveAspectRatio="xMidYMid meet">
<metadata>
Created by potrace 1.14, written by Peter Selinger 2001-2017
</metadata>
<g transform="translate(0.000000,512.000000) scale(0.100000,-0.100000)"
fill="#000000" stroke="none">
<path d="M435 5105 c-203 -56 -366 -221 -420 -425 -22 -83 -22 -4157 0 -4240
55 -207 218 -370 425 -425 83 -22 4157 -22 4240 0 213 56 386 236 430 445 8
40 10 531 8 1840 l-3 1785 -29 55 c-68 129 -183 267 -431 515 -248 248 -386
363 -515 431 l-55 29 -1800 2 c-1493 1 -1808 -1 -1850 -12z m3357 -195 c48
-14 94 -53 119 -101 19 -38 19 -59 17 -782 l-3 -743 -27 -41 c-16 -24 -44 -49
-70 -62 l-44 -21 -1322 0 c-909 0 -1329 3 -1349 11 -40 15 -82 57 -104 104
-18 38 -19 81 -19 764 0 716 0 725 21 768 22 46 65 84 114 101 41 14 2615 16
2667 2z m623 -2376 c46 -25 66 -45 89 -91 15 -30 16 -127 14 -1077 l-3 -1044
-31 -39 c-17 -21 -46 -47 -65 -58 -34 -20 -52 -20 -1859 -20 -1807 0 -1825 0
-1859 20 -19 11 -48 37 -65 58 l-31 39 -3 1044 c-2 950 -1 1047 14 1077 31 61
74 93 144 108 19 4 841 6 1825 5 l1790 -1 40 -21z"/>
<path d="M2950 4035 l0 -695 300 0 300 0 0 695 0 695 -300 0 -300 0 0 -695z"/>
</g>
</svg>
