<?xml version="1.0" encoding="UTF-8" standalone="no"?>
<svg width="8px" height="24px" viewBox="0 0 8 24" version="1.1" xmlns="http://www.w3.org/2000/svg" xmlns:xlink="http://www.w3.org/1999/xlink">
    <!-- Generator: Sketch 41 (35326) - http://www.bohemiancoding.com/sketch -->
    <title>PlungerLiftIcon</title>
    <desc>Created with Sketch.</desc>
    <defs></defs>
    <g id="Page-1" stroke="#ffffff" stroke-width="0" fill="none" fill-rule="evenodd">
        <g id="PlungerLiftIcon" transform="translate(-12.000000, -4.000000)" fill="#ffffff">
            <path d="M17,6 L17,10.036398 C18.6163985,10.1563507 20,10.5727895 20,11.2857143 C20,13 20,22.2909263 20,26.7142857 C20,28.4285714 12,28.4285714 12,26.7142857 C12,21.7632533 12,15.2857143 12,11.2857143 C12,10.5727895 13.3836015,10.1563507 15,10.036398 L15,6 L13.4910052,6 C13.2198305,6 13,5.78596497 13,5.49531555 L13,4.50468445 C13,4.22595492 13.2278805,4 13.4910052,4 L18.5089948,4 C18.7801695,4 19,4.21403503 19,4.50468445 L19,5.49531555 C19,5.77404508 18.7721195,6 18.5089948,6 L17,6 Z M14,12.25 C14,12.25 15,12 16,12 C17,12 18,12.25 18,12.25 L18,25.75 C18,25.75 17,26 16,26 C15,26 14,25.75 14,25.75 L14,12.25 Z"></path>
        </g>
    </g>
</svg>