<?xml version="1.0" encoding="UTF-8" standalone="no"?>
<svg width="25px" height="25px" viewBox="0 0 25 25" version="1.1" xmlns="http://www.w3.org/2000/svg" xmlns:xlink="http://www.w3.org/1999/xlink">
    <!-- Generator: Sketch 41 (35326) - http://www.bohemiancoding.com/sketch -->
    <title>PumpJackIcon</title>
    <desc>Created with Sketch.</desc>
    <defs></defs>
    <g id="Page-1" stroke="#ffffff" stroke-width="0" fill="none" fill-rule="evenodd">
        <g id="PumpJackIcon" transform="translate(-4.000000, -3.000000)" fill="#ffffff">
            <g>
                <path d="M25,20 L25.504611,20 C25.7782068,20 26,20.2329025 26,20.5034227 L26,26 L28.5006155,26 C28.776418,26 29,26.214035 29,26.5046844 L29,27.4953156 C29,27.7740451 28.7838736,28 28.5006155,28 L4.49938448,28 C4.22358205,28 4,27.785965 4,27.4953156 L4,26.5046844 C4,26.2259549 4.21612644,26 4.49938448,26 L11.5101462,26 L13.8958579,12.469957 L9.41590613,10.659939 L7.66354152,15.8185644 C7.57270836,16.0859598 7.35490143,16.1333838 7.17591327,15.9278532 L6.56230887,15.2232564 C6.47217416,15.1197555 6.38317726,14.9343588 6.36242524,14.8078942 C6.36242524,14.8078942 5.75570936,11.3453483 6,8.5576469 C6.24429064,5.76994546 7.45811051,3.5914836 7.45811051,3.5914836 C7.58255107,3.33814627 7.83178095,3.31242147 8.0098643,3.52950481 C8.0098643,3.52950481 9.45289942,5.28673055 10.2492386,6.27449292 C10.5229336,6.61453781 10.5962841,6.90978853 10.4481937,7.31828244 C10.3360139,7.62812078 10.3474504,7.78274225 10.0466346,8.75770033 L27.8836475,15.9643213 C28.1398864,16.0678486 28.2674301,16.3502238 28.1585509,16.6197092 L27.787454,17.5382064 C27.68304,17.7966399 27.3876084,17.920978 27.1344343,17.818689 L25,16.9563216 L25,20 Z M24,20 L23.495389,20 C23.2157526,20 23,20.22539 23,20.5034227 L23,26 L20.3921815,26 L18.3217755,14.2581438 L24,16.5522954 L24,20 Z M16.1351451,13.3746877 L18.3613283,26 L13.5409995,26 L15.7916533,13.235908 L16.1351451,13.3746877 Z"></path>
            </g>
        </g>
    </g>
</svg>