<?xml version="1.0" encoding="UTF-8" standalone="no"?>
<svg width="16px" height="26px" viewBox="0 0 16 26" version="1.1" xmlns="http://www.w3.org/2000/svg" xmlns:xlink="http://www.w3.org/1999/xlink">
    <!-- Generator: Sketch 41 (35326) - http://www.bohemiancoding.com/sketch -->
    <title>SAGDIcon</title>
    <desc>Created with Sketch.</desc>
    <defs></defs>
    <g id="Page-1" stroke="#ffffff" stroke-width="0" fill="none" fill-rule="evenodd">
        <g id="SAGDIcon" transform="translate(-8.000000, -3.000000)" fill="#ffffff">
            <path d="M15,24.9488907 C13.8984428,24.8322477 13,24.5159509 13,24 C13,23.6384681 13,13.1084732 13,11 C13,10.4840491 13.8984428,10.1677523 15,10.0511093 L15,3.75043583 C15,3.47405275 15.214035,3.25 15.5046844,3.25 L16.4953156,3.25 C16.7740451,3.25 17,3.48079681 17,3.75043583 L17,10.0511093 C18.1015572,10.1677523 19,10.4840491 19,11 C19,12.3333333 19,20.5596093 19,24 C19,24.5159509 18.1015572,24.8322477 17,24.9488907 L17,27 L23.5036068,27 C23.7777572,27 24,27.214035 24,27.5046844 L24,28.4953156 C24,28.7740451 23.773819,29 23.5036068,29 L8.4963932,29 C8.22224281,29 8,28.785965 8,28.4953156 L8,27.5046844 C8,27.2259549 8.22618103,27 8.4963932,27 L15,27 L15,24.9488907 Z M15,12.25 C15,12.25 15,12 16,12 C17,12 17,12.25 17,12.25 L17,17.5 L15,18.5 L15,12.25 Z"></path>
        </g>
    </g>
</svg>