<?xml version="1.0" encoding="UTF-8" standalone="no"?>
<svg width="18px" height="25px" viewBox="0 0 18 25" version="1.1" xmlns="http://www.w3.org/2000/svg" xmlns:xlink="http://www.w3.org/1999/xlink">
    <!-- Generator: Sketch 41 (35326) - http://www.bohemiancoding.com/sketch -->
    <title>ScrewPumpIcon</title>
    <desc>Created with Sketch.</desc>
    <defs></defs>
    <g id="Page-1" stroke="#ffffff" stroke-width="0" fill="none" fill-rule="evenodd">
        <g id="ScrewPumpIcon" transform="translate(-7.000000, -4.000000)" fill="#ffffff">
            <g>
                <path d="M17,4.30000019 C16.9999764,4.29998733 16.4499911,4 16,4 C15.5,4 15,4.5 15,5 L15,13.305259 C8.36481063,13.3766075 7,14.1499996 7,14.1499996 L7,18.2999992 C7,18.2999992 9.35293944,18.958823 15.4284298,18.9981651 L14.1663818,20.1533813 C14.1663818,20.1533813 14.0163615,20.3716189 13.949646,20.5494995 C13.8677766,20.7677843 13.8668933,20.9707808 13.8775635,21.192749 C13.8969287,21.5955996 14.2511597,21.9169922 14.2511597,21.9169922 L15.2875366,22.9944458 C15.2875366,22.9944458 14.6466838,23.6059374 14.2511597,23.9995117 C13.9241621,24.3248974 13.8001099,24.5515366 13.8001099,25.0200005 C13.8001099,25.134914 13.7868498,25.3434852 13.949646,25.5897827 C14.1124422,25.8360803 14.5302734,26.255127 14.5302734,26.255127 L16.2924194,28.0999146 C16.2924194,28.0999146 16.5527201,28.4289307 16.9638062,28.4973145 C17.2292432,28.5414696 17.6202605,28.428191 17.8343506,28.2110596 C18.0620547,27.9801207 18.1551922,27.6796075 18.1085205,27.3330078 C18.0618489,26.9864081 17.8343506,26.8209229 17.8343506,26.8209229 L16.1000004,25.0200005 C16.1000004,25.0200005 16.1000004,25.0200005 17.2886961,23.8443235 C17.5040903,23.5403257 17.6354393,23.3510846 17.5931931,22.8534605 C17.5509469,22.3558364 17.1887363,22.0727502 17.1887363,22.0727502 L16.1766583,21.0292866 L18.4274724,18.9648717 C23.1320794,18.8230176 25,18.2999992 25,18.2999992 L25,14.1499996 C25,14.1499996 23.6351894,13.3766075 17,13.305259 L17,4.30000019 L17,10.5500002 L21,8.94999981 C22,8.5 22.9500008,8.26782227 22.9500008,7.5 C22.9500008,6.73217773 22,6.5 21,6 L17,4.30000019 Z M9,15.6999998 C9,15.6999998 11.5,15.3000002 16,15.3000002 C20.5,15.3000002 23,15.6999998 23,15.6999998 L23,16.7000008 C23,16.7000008 20,17 16,17 C12,17 9,16.7000008 9,16.7000008 L9,15.6999998 Z M20.0035767,7.440979 L17,8.41064453 L17,6.47131348 L20.0035767,7.440979 Z"></path>
            </g>
        </g>
    </g>
</svg>