<?xml version="1.0" encoding="UTF-8" standalone="no"?>
<svg width="23px" height="23px" viewBox="0 0 23 23" version="1.1" xmlns="http://www.w3.org/2000/svg" xmlns:xlink="http://www.w3.org/1999/xlink">
    <!-- Generator: Sketch 41 (35326) - http://www.bohemiancoding.com/sketch -->
    <title>WaterSourceIcon</title>
    <desc>Created with Sketch.</desc>
    <defs></defs>
    <g id="Page-1" stroke="#ffffff" stroke-width="0" fill="none" fill-rule="evenodd">
        <g id="WaterSourceIcon" transform="translate(-7.000000, -2.000000)" fill="#ffffff">
            <g>
                <path d="M23.0009714,10.4132422 L26.247637,7.16657655 C26.4458877,6.96832582 26.4552561,6.65626622 26.2497359,6.45074605 L25.549254,5.75026408 C25.3521624,5.55317254 25.0374323,5.5483541 24.8334234,5.75236299 L21.5949168,8.99086965 C21.3208887,8.76956447 21.0338361,8.56461749 20.7351744,8.37744406 C18.2651213,6.78765781 15.199631,6.55859639 12.5579929,7.69025982 C9.5854719,8.87978346 7.43519801,11.635543 7.10381017,14.9608996 C6.82065195,17.2844046 7.4432805,19.673488 8.97169583,21.5519753 C10.4144858,23.3972619 12.5453674,24.6478914 14.9560778,24.8956009 C17.2810991,25.180209 19.6721885,24.5577768 21.5519753,23.0283042 C23.3972619,21.5855142 24.6478914,19.4546326 24.8956009,17.0439222 C25.180209,14.7189009 24.5577768,12.3278115 23.0283042,10.4480247 C23.0192205,10.4364069 23.0101095,10.4248127 23.0009714,10.4132422 Z M24,2.50468445 C24,2.22595492 24.2278805,2 24.4910052,2 L29.5089948,2 C29.7801695,2 30,2.22788048 30,2.49100518 L30,7.50899482 C30,7.78016949 29.785965,8 29.4953156,8 L28.5046844,8 C28.2259549,8 28,7.78494263 28,7.50952148 L28,4 L24.4904785,4 C24.2195947,4 24,3.78596497 24,3.49531555 L24,2.50468445 Z M16,23 C19.8659932,23 23,19.8659932 23,16 C23,12.1340068 19.8659932,9 16,9 C12.1340068,9 9,12.1340068 9,16 C9,19.8659932 12.1340068,23 16,23 Z"></path>
            </g>
        </g>
    </g>
</svg>