<?xml version="1.0" encoding="UTF-8" standalone="no"?>
<svg width="23px" height="23px" viewBox="0 0 23 23" version="1.1" xmlns="http://www.w3.org/2000/svg" xmlns:xlink="http://www.w3.org/1999/xlink">
    <!-- Generator: Sketch 41 (35326) - http://www.bohemiancoding.com/sketch -->
    <title>WaterInjIcon</title>
    <desc>Created with Sketch.</desc>
    <defs></defs>
    <g id="Page-1" stroke="#ffffff" stroke-width="0" fill="none" fill-rule="evenodd">
        <g id="WaterInjIcon" transform="translate(-2.000000, -7.000000)" fill="#ffffff">
            <g>
                <path d="M20.7351744,8.37744406 C18.2651213,6.78765781 15.199631,6.55859639 12.5579929,7.69025982 C9.5854719,8.87978346 7.43519801,11.635543 7.10381017,14.9608996 C6.82065195,17.2844046 7.4432805,19.673488 8.97169583,21.5519753 C8.98077952,21.5635931 8.98989049,21.5751873 8.99902863,21.5867578 L5.75236299,24.8334234 C5.55411226,25.0316742 5.54474391,25.3437338 5.75026408,25.549254 L6.45074605,26.2497359 C6.64783759,26.4468275 6.96256767,26.4516459 7.16657655,26.247637 L10.4050832,23.0091304 C11.6857622,24.043407 13.2509194,24.7203895 14.9560778,24.8956009 C17.2810991,25.180209 19.6721885,24.5577768 21.5519753,23.0283042 C23.3972619,21.5855142 24.6478914,19.4546326 24.8956009,17.0439222 C25.180209,14.7189009 24.5577768,12.3278115 23.0283042,10.4480247 C22.3876749,9.62867844 21.6113851,8.92657165 20.7351744,8.37744406 Z M2.50468445,24 C2.22595492,24 2,24.2278805 2,24.4910052 L2,29.5089948 C2,29.7801695 2.22788048,30 2.49100518,30 L7.50899482,30 C7.78016949,30 8,29.785965 8,29.4953156 L8,28.5046844 C8,28.2259549 7.78494263,28 7.50952148,28 L4,28 L4,24.4904785 C4,24.2195947 3.78596497,24 3.49531555,24 L2.50468445,24 Z M16,23 C19.8659932,23 23,19.8659932 23,16 C23,12.1340068 19.8659932,9 16,9 C12.1340068,9 9,12.1340068 9,16 C9,19.8659932 12.1340068,23 16,23 Z"></path>
            </g>
        </g>
    </g>
</svg>