<svg style="width: 36px; height: 36px; display: block; position: relative; overflow: hidden; cursor: move; left: 2px; top: 2px;" xmlns="http://www.w3.org/2000/svg" viewBox="0 0 52.28 43.49"><g><g></g><g><g transform="translate(0.5,0.5)" style="visibility: visible;"><rect x="2" y="6" width="31" height="23" fill="#ffffff" stroke="#000000" pointer-events="all"></rect><path d="M 2 12 L 2 6 L 33 6 L 33 12 Z" fill="none" stroke="white" stroke-miterlimit="10" pointer-events="stroke" visibility="hidden" stroke-width="9"></path><path d="M 2 12 L 2 6 L 33 6 L 33 12 Z" fill="none" stroke="#000000" stroke-miterlimit="10" pointer-events="all"></path></g><g style=""><g fill="#000000" font-family="Helvetica" text-anchor="middle" font-size="2.64px"><text x="17.32" y="9.9">List</text></g></g><g transform="translate(0.5,0.5)" style="visibility: visible;"><rect x="2" y="12" width="31" height="6" fill="none" stroke="white" pointer-events="stroke" visibility="hidden" stroke-width="9"></rect><rect x="2" y="12" width="31" height="6" fill="none" stroke="none" pointer-events="all"></rect></g><g style=""><clipPath id="mx-clip-2-11-32-9-0"><rect x="2" y="11" width="32" height="9"></rect></clipPath><g fill="#000000" font-family="Helvetica" clip-path="url(https://www.draw.io/#mx-clip-2-11-32-9-0)" font-size="2.64px"><text x="3.74" y="15.84">Item 1</text></g></g><g transform="translate(0.5,0.5)" style="visibility: visible;"><rect x="2" y="18" width="31" height="6" fill="none" stroke="white" pointer-events="stroke" visibility="hidden" stroke-width="9"></rect><rect x="2" y="18" width="31" height="6" fill="none" stroke="none" pointer-events="all"></rect></g><g style=""><clipPath id="mx-clip-2-17-32-9-0"><rect x="2" y="17" width="32" height="9"></rect></clipPath><g fill="#000000" font-family="Helvetica" clip-path="url(https://www.draw.io/#mx-clip-2-17-32-9-0)" font-size="2.64px"><text x="3.74" y="21.56">Item 2</text></g></g><g transform="translate(0.5,0.5)" style="visibility: visible;"><rect x="2" y="23" width="31" height="6" fill="none" stroke="white" pointer-events="stroke" visibility="hidden" stroke-width="9"></rect><rect x="2" y="23" width="31" height="6" fill="none" stroke="none" pointer-events="all"></rect></g><g style=""><clipPath id="mx-clip-2-23-32-9-0"><rect x="2" y="23" width="32" height="9"></rect></clipPath><g fill="#000000" font-family="Helvetica" clip-path="url(https://www.draw.io/#mx-clip-2-23-32-9-0)" font-size="2.64px"><text x="3.74" y="27.28">Item 3</text></g></g></g><g></g><g></g></g></svg>