<svg id="assets_2" data-name="assets 2" xmlns="http://www.w3.org/2000/svg" viewBox="0 0 42.45 42.69"><defs><style>.cls-1{fill:#fff;}</style></defs><title>Assets</title><path class="cls-1" d="M518.88,44.2a4.47,4.47,0,0,1,3.8-3.73,14,14,0,0,0-2.11-5.52,4.47,4.47,0,0,1-6.64-5.4,14.08,14.08,0,0,0-5.94-.93,4.47,4.47,0,0,1-8,3.1,14,14,0,0,0-3.7,4.6A4.47,4.47,0,0,1,495,44.77a14,14,0,0,0,2.14,5.53A4.47,4.47,0,0,1,504,54.75a4.52,4.52,0,0,1-.24.89,14.1,14.1,0,0,0,5.89.93,4.47,4.47,0,0,1,7.94-3,14,14,0,0,0,3.75-4.61A4.47,4.47,0,0,1,518.88,44.2Zm-11.26,6.12a7.83,7.83,0,1,1,9-6.51A7.83,7.83,0,0,1,507.62,50.33Z" transform="translate(-495 -13.92)"/><path class="cls-1" d="M529.21,27.65a3.24,3.24,0,0,1,3.6-1.39A10.14,10.14,0,0,0,533,22a3.24,3.24,0,0,1-2.87-5.51,10.21,10.21,0,0,0-3.69-2.33,3.24,3.24,0,0,1-6.2-.22,10.15,10.15,0,0,0-3.78,2,3.24,3.24,0,0,1-3.31,5.25,10.14,10.14,0,0,0-.16,4.3,3.24,3.24,0,0,1,3.28,4.93,3.28,3.28,0,0,1-.42.53,10.23,10.23,0,0,0,3.65,2.31,3.24,3.24,0,0,1,6.16.25,10.15,10.15,0,0,0,3.82-2A3.24,3.24,0,0,1,529.21,27.65Zm-9.26.84a5.68,5.68,0,1,1,7.83-1.77A5.68,5.68,0,0,1,519.95,28.49Z" transform="translate(-495 -13.92)"/><path class="cls-1" d="M535.55,41.85a2.24,2.24,0,0,1,1.9-1.87,7,7,0,0,0-1.06-2.76,2.24,2.24,0,0,1-3.32-2.7,7,7,0,0,0-3-.47,2.24,2.24,0,0,1-4,1.55,7,7,0,0,0-1.85,2.3,2.24,2.24,0,0,1-.66,4.23,7,7,0,0,0,1.07,2.77,2.24,2.24,0,0,1,3.42,2.23,2.26,2.26,0,0,1-.12.45,7.05,7.05,0,0,0,2.94.47,2.24,2.24,0,0,1,4-1.52,7,7,0,0,0,1.88-2.31A2.24,2.24,0,0,1,535.55,41.85Zm-5.63,3.06a3.92,3.92,0,1,1,4.48-3.26A3.92,3.92,0,0,1,529.92,44.91Z" transform="translate(-495 -13.92)"/></svg>