<svg id="collab" xmlns="http://www.w3.org/2000/svg" viewBox="0 0 47.45 43.65"><defs><style>.cls-1{fill:none;stroke:#fff;stroke-miterlimit:10;stroke-width:2.27px;}</style></defs><title>Collaboration</title><path class="cls-1" d="M678.31,36.68H672.5l-9.74,7.22,0.83-7.22a2.52,2.52,0,0,1-2.51-2.51V16.43a2.52,2.52,0,0,1,2.51-2.51h30.57a2.52,2.52,0,0,1,2.51,2.51V30.72" transform="translate(-659.94 -12.78)"/><circle class="cls-1" cx="11.76" cy="11.76" r="0.93"/><circle class="cls-1" cx="19.31" cy="11.76" r="0.93"/><circle class="cls-1" cx="26.85" cy="11.76" r="0.93"/><path class="cls-1" d="M680.62,48.36h16.79L705,54l-0.64-5.6a2,2,0,0,0,1.95-1.95V32.67a2,2,0,0,0-1.95-1.95H680.62a2,2,0,0,0-1.95,1.95V46.42A2,2,0,0,0,680.62,48.36Z" transform="translate(-659.94 -12.78)"/><line class="cls-1" x1="24.18" y1="23.98" x2="39.72" y2="23.98"/><line class="cls-1" x1="24.18" y1="29.56" x2="39.72" y2="29.56"/></svg>