<svg id="Ideas_Active" data-name="Ideas Active" xmlns="http://www.w3.org/2000/svg" viewBox="0 0 40.56 43.6"><defs><style>.cls-1{fill:none;stroke:#23437c;stroke-miterlimit:10;stroke-width:2.27px;}</style></defs><title>Ideas_active</title><path class="cls-1" d="M356.66,35.27a11.23,11.23,0,0,1-4.86,9.63,28.87,28.87,0,0,1-.19,3.16l-7.71,0s-0.19-1.8-.19-3.18a11.26,11.26,0,0,1-4.78-9.58c0-6,4-10.79,8.87-10.79S356.66,29.31,356.66,35.27Z" transform="translate(-327.64 -12.46)"/><path class="cls-1" d="M344.18,50.59h7.26s0,4.34-3.65,4.34S344.18,50.59,344.18,50.59Z" transform="translate(-327.64 -12.46)"/><polygon class="cls-1" points="20.1 3.84 19.15 7.07 21.14 7.07 20.1 3.84"/><polygon class="cls-1" points="32.4 10.63 29.27 11.85 30.49 13.43 32.4 10.63"/><polygon class="cls-1" points="7.62 10.63 10.75 11.85 9.54 13.43 7.62 10.63"/><polygon class="cls-1" points="3.84 21.81 7.09 20.97 7.03 22.96 3.84 21.81"/><polygon class="cls-1" points="36.72 21.81 33.47 20.97 33.53 22.96 36.72 21.81"/></svg>