<svg id="people" xmlns="http://www.w3.org/2000/svg" viewBox="0 0 54.68 44.01">
  <defs>
    <style>.people{fill:none;stroke:#fff;stroke-miterlimit:10;stroke-width:2.27px;}</style>
  </defs>
  <title>People</title>
  <circle class="people" cx="27.33" cy="5.18" r="4.04"/>
  <path class="people" d="M427.41,25a13.28,13.28,0,0,0,8.76,0,19.34,19.34,0,0,1,4.08,10.46H423.63A24.51,24.51,0,0,1,427.41,25Z" transform="translate(-404.61 -12.83)"/>
  <circle class="people" cx="9.55" cy="25.44" r="4.04"/>
  <path class="people" d="M409.63,45.25a13.28,13.28,0,0,0,8.76,0,19.34,19.34,0,0,1,4.08,10.46H405.85A24.51,24.51,0,0,1,409.63,45.25Z" transform="translate(-404.61 -12.83)"/>
  <circle class="people" cx="45.12" cy="25.44" r="4.04"/>
  <path class="people" d="M445.2,45.25a13.28,13.28,0,0,0,8.76,0A19.34,19.34,0,0,1,458,55.71H441.41A24.51,24.51,0,0,1,445.2,45.25Z" transform="translate(-404.61 -12.83)"/>
  <circle class="people" cx="27.33" cy="33.6" r="3.8"/>
  <line class="people" x1="27.33" y1="22.57" x2="27.33" y2="33.16"/>
  <line class="people" x1="38.54" y1="36.35" x2="27.06" y2="33.16"/>
  <line class="people" x1="16.34" y1="36.72" x2="26.95" y2="33.16"/>
</svg>